<svg xmlns="http://www.w3.org/2000/svg" xmlns:xlink="http://www.w3.org/1999/xlink" width="500" zoomAndPan="magnify" viewBox="0 0 375 374.999991" height="500" preserveAspectRatio="xMidYMid meet" version="1.0"><defs><g/><clipPath id="76c58c985a"><path d="M 62.738281 0 L 312.542969 0 L 312.542969 103.816406 L 62.738281 103.816406 Z M 62.738281 0 " clip-rule="nonzero"/></clipPath><clipPath id="7e0f474d2f"><path d="M 76 14 L 301 14 L 301 103.816406 L 76 103.816406 Z M 76 14 " clip-rule="nonzero"/></clipPath><clipPath id="a86e36e6bb"><path d="M 62.738281 73 L 312.542969 73 L 312.542969 374.71875 L 62.738281 374.71875 Z M 62.738281 73 " clip-rule="nonzero"/></clipPath><clipPath id="ba62532c22"><path d="M 80.707031 88.164062 L 179.464844 88.164062 L 179.464844 113.335938 L 80.707031 113.335938 Z M 80.707031 88.164062 " clip-rule="nonzero"/></clipPath><clipPath id="04d2d62c47"><path d="M 82.507812 108.453125 C 99.621094 103.910156 103.351562 101.640625 107.003906 100.585938 C 110.167969 99.695312 113.328125 99.289062 116.007812 99.046875 C 118.195312 98.882812 120.871094 98.394531 122.007812 99.207031 C 122.738281 99.773438 123.0625 101.316406 122.898438 102.046875 C 122.738281 102.777344 122.171875 103.425781 121.195312 103.832031 C 118.4375 104.886719 108.058594 102.046875 103.351562 103.101562 C 99.945312 103.910156 97.839844 106.667969 95.242188 107.640625 C 92.972656 108.453125 90.296875 109.265625 88.753906 108.941406 C 87.863281 108.777344 87.050781 108.371094 86.726562 107.722656 C 86.402344 106.992188 86.238281 105.695312 86.96875 104.804688 C 88.753906 102.613281 99.136719 102.371094 104.976562 100.425781 C 110.652344 98.558594 116.574219 95.3125 121.441406 93.53125 C 125.171875 92.152344 128.171875 91.015625 131.578125 90.527344 C 134.984375 89.960938 140.09375 89.3125 141.796875 90.285156 C 142.691406 90.851562 143.09375 91.988281 143.09375 92.800781 C 143.015625 93.449219 142.691406 94.179688 141.796875 94.585938 C 139.527344 95.882812 129.632812 93.933594 126.0625 95.234375 C 123.953125 95.964844 122.980469 97.910156 121.519531 98.722656 C 120.304688 99.371094 118.925781 99.855469 117.953125 99.773438 C 117.304688 99.773438 116.65625 99.53125 116.25 99.207031 C 115.84375 98.800781 115.519531 98.152344 115.4375 97.585938 C 115.355469 97.019531 115.601562 96.289062 115.925781 95.882812 C 116.25 95.394531 116.574219 95.152344 117.382812 94.910156 C 119.574219 94.097656 126.710938 94.339844 131.171875 93.609375 C 135.226562 92.882812 140.664062 90.285156 142.933594 90.773438 C 143.988281 90.933594 144.796875 91.503906 145.042969 92.152344 C 145.203125 92.882812 144.878906 94.097656 143.988281 94.910156 C 141.714844 96.9375 129.0625 100.425781 126.632812 99.449219 C 125.738281 99.046875 125.332031 97.992188 125.414062 97.261719 C 125.414062 96.691406 125.738281 96.042969 126.46875 95.558594 C 127.847656 94.585938 131.578125 94.421875 135.148438 94.015625 C 140.664062 93.367188 153.558594 91.746094 156.640625 93.207031 C 157.777344 93.691406 158.425781 94.664062 158.425781 95.394531 C 158.425781 96.042969 157.855469 96.773438 156.964844 97.261719 C 154.613281 98.394531 143.90625 98.070312 141.554688 97.097656 C 140.664062 96.773438 140.257812 96.207031 140.09375 95.71875 C 139.851562 95.234375 139.769531 94.664062 140.09375 94.179688 C 140.824219 93.125 143.824219 92.070312 146.339844 91.257812 C 149.746094 90.285156 156.316406 88.824219 158.75 89.476562 C 159.882812 89.71875 160.9375 90.367188 161.101562 91.097656 C 161.183594 91.746094 160.613281 92.960938 159.722656 93.609375 C 157.777344 94.828125 149.910156 95.3125 147.800781 94.339844 C 146.828125 93.855469 146.097656 92.71875 146.097656 91.988281 C 146.097656 91.257812 146.746094 90.527344 147.71875 90.042969 C 149.828125 88.90625 158.101562 88.097656 160.046875 89.070312 C 161.019531 89.554688 161.425781 90.609375 161.425781 91.339844 C 161.425781 91.988281 161.019531 92.71875 160.289062 93.207031 C 158.910156 94.015625 154.855469 93.609375 151.855469 93.691406 C 148.285156 93.773438 142.203125 94.664062 140.417969 93.609375 C 139.609375 93.125 139.121094 92.070312 139.285156 91.421875 C 139.363281 90.691406 140.175781 90.042969 141.390625 89.554688 C 144.636719 88.175781 159.316406 87.691406 162.398438 88.746094 C 163.453125 89.148438 164.101562 89.71875 164.183594 90.367188 C 164.34375 91.097656 163.859375 92.070312 162.886719 92.800781 C 160.289062 94.910156 146.421875 99.289062 143.664062 98.558594 C 142.691406 98.316406 142.121094 97.503906 141.960938 96.855469 C 141.878906 96.207031 142.285156 95.3125 143.015625 94.746094 C 144.554688 93.53125 149.097656 93.53125 153.234375 93.042969 C 159.558594 92.394531 173.996094 90.609375 177.484375 91.90625 C 178.703125 92.3125 179.429688 93.207031 179.429688 93.855469 C 179.511719 94.421875 178.621094 95.558594 178.050781 95.640625 C 177.402344 95.71875 175.863281 94.828125 175.699219 94.179688 C 175.621094 93.53125 176.671875 91.988281 177.324219 91.90625 C 177.890625 91.828125 179.351562 92.960938 179.429688 93.609375 C 179.511719 94.261719 178.78125 95.152344 177.648438 95.71875 C 174.320312 97.34375 160.046875 96.367188 153.71875 97.019531 C 149.664062 97.421875 145.449219 99.289062 143.664062 98.558594 C 142.691406 98.152344 141.960938 97.019531 141.960938 96.367188 C 141.960938 95.71875 142.527344 95.152344 143.417969 94.503906 C 146.097656 92.71875 158.75 88.257812 161.914062 88.746094 C 163.128906 88.988281 163.941406 89.71875 164.183594 90.367188 C 164.425781 90.933594 164.019531 91.828125 163.695312 92.230469 C 163.371094 92.636719 163.128906 92.71875 162.398438 92.960938 C 159.640625 93.691406 144.554688 94.503906 141.390625 93.855469 C 140.417969 93.609375 140.011719 93.367188 139.609375 92.882812 C 139.363281 92.558594 139.121094 91.90625 139.285156 91.421875 C 139.445312 90.773438 140.175781 89.960938 141.390625 89.554688 C 144.394531 88.339844 157.53125 87.691406 160.046875 89.070312 C 161.019531 89.636719 161.507812 90.609375 161.425781 91.339844 C 161.425781 92.070312 160.777344 92.882812 159.804688 93.367188 C 157.777344 94.503906 149.910156 95.3125 147.800781 94.339844 C 146.746094 93.855469 146.097656 92.71875 146.097656 91.988281 C 146.097656 91.257812 146.828125 90.527344 147.71875 90.042969 C 149.746094 88.988281 157.207031 88.582031 159.316406 89.476562 C 160.289062 89.878906 161.101562 90.851562 161.101562 91.582031 C 161.183594 92.230469 160.613281 93.042969 159.722656 93.609375 C 157.695312 94.746094 150.71875 94.664062 147.476562 95.394531 C 145.285156 95.882812 143.339844 97.261719 142.042969 97.179688 C 141.3125 97.097656 140.582031 96.691406 140.257812 96.207031 C 140.011719 95.640625 139.851562 94.746094 140.09375 94.179688 C 140.417969 93.609375 141.148438 93.125 142.203125 92.882812 C 144.796875 92.152344 154.289062 91.988281 156.640625 93.207031 C 157.695312 93.691406 158.425781 94.664062 158.425781 95.394531 C 158.425781 96.042969 157.9375 96.773438 156.964844 97.261719 C 154.125 98.722656 141.230469 97.667969 135.632812 98.152344 C 131.984375 98.476562 128.171875 100.179688 126.632812 99.449219 C 125.820312 99.046875 125.332031 97.992188 125.414062 97.261719 C 125.414062 96.691406 125.738281 96.125 126.46875 95.558594 C 128.660156 93.933594 140.09375 90.125 142.933594 90.773438 C 144.148438 91.015625 145.042969 91.988281 145.125 92.71875 C 145.203125 93.449219 144.554688 94.421875 143.417969 95.152344 C 140.742188 96.9375 130.199219 98.316406 125.414062 99.046875 C 122.414062 99.53125 119.65625 100.261719 117.953125 99.773438 C 116.898438 99.53125 115.84375 98.882812 115.601562 98.152344 C 115.355469 97.421875 115.601562 96.289062 116.332031 95.394531 C 117.789062 93.609375 122.980469 91.257812 126.875 90.367188 C 131.171875 89.394531 138.796875 89.070312 141.230469 90.125 C 142.285156 90.609375 142.933594 91.503906 143.09375 92.152344 C 143.257812 92.71875 143.015625 93.367188 142.691406 93.855469 C 142.367188 94.261719 141.960938 94.585938 141.230469 94.828125 C 139.609375 95.3125 135.472656 94.503906 132.550781 94.828125 C 129.386719 95.234375 126.550781 95.964844 122.980469 97.261719 C 118.113281 98.882812 111.625 102.695312 106.273438 104.640625 C 101.570312 106.34375 96.054688 108.128906 92.648438 108.617188 C 90.539062 108.859375 88.59375 109.101562 87.617188 108.617188 C 86.96875 108.292969 86.644531 107.722656 86.484375 107.15625 C 86.320312 106.589844 86.402344 105.859375 86.644531 105.289062 C 86.890625 104.804688 87.214844 104.398438 87.941406 104.074219 C 89.160156 103.34375 92.160156 103.425781 94.105469 102.695312 C 95.890625 101.964844 97.433594 100.34375 99.136719 99.613281 C 100.59375 99.046875 101.488281 98.722656 103.351562 98.476562 C 107.246094 97.992188 118.113281 97.992188 120.792969 98.722656 C 121.683594 98.964844 122.089844 99.207031 122.414062 99.695312 C 122.820312 100.101562 123.144531 100.828125 122.980469 101.476562 C 122.898438 102.207031 122.25 103.183594 121.195312 103.832031 C 118.84375 105.210938 112.925781 104.640625 107.894531 105.777344 C 100.921875 107.398438 87.050781 112.914062 83.644531 113.238281 C 82.753906 113.320312 82.429688 113.238281 81.941406 112.996094 C 81.453125 112.753906 80.96875 112.183594 80.804688 111.699219 C 80.644531 111.050781 80.804688 109.996094 81.128906 109.425781 C 81.375 108.941406 82.507812 108.453125 82.507812 108.453125 " clip-rule="nonzero"/></clipPath><clipPath id="b96635f0db"><path d="M 160 84.144531 L 248.820312 84.144531 L 248.820312 104.839844 L 160 104.839844 Z M 160 84.144531 " clip-rule="nonzero"/></clipPath><clipPath id="628f6ad7f5"><path d="M 163.777344 88.339844 C 188.675781 89.070312 189.246094 90.125 189.164062 90.773438 C 189.082031 91.503906 188.273438 92.230469 187.054688 92.636719 C 183.730469 93.855469 168.402344 93.773438 165.398438 92.394531 C 164.425781 91.988281 163.859375 91.257812 163.859375 90.609375 C 163.777344 89.878906 164.425781 88.824219 165.398438 88.339844 C 167.265625 87.285156 172.617188 87.691406 175.863281 87.769531 C 178.703125 87.769531 182.109375 87.933594 183.730469 88.421875 C 184.460938 88.664062 185.027344 88.988281 185.269531 89.476562 C 185.59375 89.878906 185.59375 90.773438 185.351562 91.339844 C 185.109375 91.828125 184.703125 92.230469 183.890625 92.476562 C 182.027344 92.960938 176.835938 91.097656 173.265625 90.773438 C 169.453125 90.527344 163.695312 91.582031 161.75 90.691406 C 160.777344 90.367188 160.128906 89.71875 160.046875 89.070312 C 160.046875 88.339844 160.613281 87.203125 161.507812 86.71875 C 163.046875 85.90625 167.183594 86.636719 169.78125 86.960938 C 172.210938 87.203125 175.621094 87.445312 176.753906 88.339844 C 177.402344 88.824219 177.648438 89.636719 177.566406 90.203125 C 177.566406 90.851562 177.160156 91.582031 176.511719 91.988281 C 175.292969 92.71875 171.320312 93.042969 169.699219 92.558594 C 168.644531 92.152344 167.507812 91.257812 167.425781 90.527344 C 167.347656 89.71875 167.914062 88.664062 169.128906 87.933594 C 173.429688 85.664062 201.003906 85.417969 205.140625 87.203125 C 206.195312 87.609375 206.601562 88.257812 206.765625 88.90625 C 206.84375 89.476562 206.683594 90.285156 206.113281 90.773438 C 205.304688 91.421875 203.519531 91.339844 201.328125 91.503906 C 196.867188 91.90625 183.972656 92.230469 180.972656 91.421875 C 180.078125 91.097656 179.59375 90.933594 179.351562 90.367188 C 179.105469 89.878906 179.027344 88.582031 179.511719 88.097656 C 180.160156 87.285156 181.945312 87.285156 183.890625 87.203125 C 187.460938 87.121094 196.867188 88.097656 199.300781 89.554688 C 200.355469 90.125 201.003906 90.933594 201.003906 91.582031 C 201.003906 92.230469 200.277344 93.042969 199.140625 93.53125 C 195.652344 94.910156 177.160156 93.285156 173.671875 91.988281 C 172.617188 91.582031 172.132812 91.097656 171.886719 90.527344 C 171.726562 90.042969 171.808594 89.230469 172.210938 88.746094 C 172.941406 88.015625 175.214844 87.851562 176.917969 87.609375 C 179.027344 87.367188 181.132812 87.367188 183.972656 87.527344 C 188.433594 87.769531 198.492188 88.175781 201.085938 89.636719 C 202.140625 90.203125 202.789062 91.097656 202.707031 91.746094 C 202.707031 92.394531 201.898438 93.285156 200.84375 93.609375 C 198.246094 94.421875 187.542969 92.636719 185.351562 90.933594 C 184.460938 90.203125 184.054688 89.070312 184.214844 88.421875 C 184.378906 87.769531 185.027344 87.285156 186.082031 86.960938 C 188.757812 85.988281 199.871094 85.742188 202.546875 86.636719 C 203.601562 87.042969 204.167969 87.527344 204.410156 88.175781 C 204.574219 88.664062 204.492188 89.636719 204.007812 90.042969 C 203.359375 90.691406 201.574219 90.527344 199.546875 90.527344 C 195.085938 90.527344 181.054688 89.960938 178.050781 88.257812 C 176.996094 87.609375 176.511719 86.636719 176.511719 85.988281 C 176.59375 85.339844 177.324219 84.363281 178.132812 84.203125 C 179.917969 83.796875 186.570312 86.796875 187.867188 88.421875 C 188.597656 89.3125 188.597656 90.691406 188.273438 91.339844 C 188.027344 91.90625 187.378906 92.230469 186.488281 92.394531 C 184.214844 92.71875 176.1875 91.339844 174.160156 90.285156 C 173.347656 89.800781 172.863281 89.3125 172.699219 88.664062 C 172.535156 88.015625 172.699219 87.042969 173.1875 86.554688 C 173.996094 85.824219 175.699219 85.824219 178.296875 85.742188 C 186.40625 85.5 221.929688 88.90625 229.148438 90.691406 C 231.175781 91.179688 232.394531 91.421875 232.878906 92.152344 C 233.285156 92.636719 233.125 93.53125 232.878906 94.015625 C 232.636719 94.503906 232.148438 94.828125 231.339844 95.070312 C 229.472656 95.558594 225.011719 95.152344 221.523438 94.664062 C 217.390625 94.179688 210.25 93.285156 208.144531 91.746094 C 207.25 91.097656 206.601562 90.042969 206.765625 89.394531 C 206.84375 88.746094 207.820312 87.933594 208.871094 87.769531 C 211.550781 87.203125 221.605469 90.042969 223.554688 91.746094 C 224.363281 92.394531 224.6875 93.207031 224.527344 93.855469 C 224.363281 94.503906 223.554688 95.394531 222.417969 95.558594 C 219.417969 96.125 207.25 91.828125 205.140625 90.125 C 204.492188 89.554688 204.25 88.988281 204.25 88.421875 C 204.332031 87.769531 204.816406 86.796875 205.628906 86.472656 C 207.007812 85.824219 210.332031 86.71875 213.007812 87.367188 C 216.496094 88.257812 223.230469 90.042969 224.6875 91.90625 C 225.417969 92.800781 225.582031 94.179688 225.257812 94.828125 C 224.851562 95.476562 223.148438 95.964844 222.417969 95.71875 C 221.605469 95.394531 220.796875 93.773438 220.796875 92.960938 C 220.796875 92.476562 221.199219 91.90625 221.605469 91.582031 C 222.09375 91.257812 222.742188 91.179688 223.632812 91.179688 C 225.660156 91.257812 229.71875 92.636719 233.125 94.015625 C 237.503906 95.640625 245.53125 98.882812 247.558594 100.910156 C 248.371094 101.722656 248.777344 102.453125 248.777344 103.101562 C 248.695312 103.667969 248.128906 104.398438 247.558594 104.640625 C 246.992188 104.886719 245.613281 104.558594 245.128906 104.074219 C 244.722656 103.667969 244.558594 102.777344 244.722656 102.207031 C 244.964844 101.640625 246.101562 100.75 246.75 100.75 C 247.316406 100.667969 248.128906 101.074219 248.453125 101.640625 C 248.777344 102.207031 248.695312 103.585938 248.289062 104.074219 C 247.964844 104.558594 247.398438 104.804688 246.507812 104.804688 C 243.910156 104.722656 236.207031 99.695312 231.664062 97.992188 C 228.015625 96.613281 222.742188 96.53125 221.445312 94.910156 C 220.796875 94.097656 220.796875 92.636719 221.199219 91.988281 C 221.605469 91.421875 222.984375 90.933594 223.632812 91.179688 C 224.445312 91.421875 225.5 93.042969 225.582031 93.855469 C 225.582031 94.339844 225.257812 94.910156 224.851562 95.234375 C 224.445312 95.640625 223.796875 95.882812 222.902344 95.882812 C 220.714844 95.71875 215.359375 92.394531 212.035156 91.339844 C 209.441406 90.527344 205.789062 90.851562 204.816406 89.800781 C 204.25 89.148438 204.25 88.015625 204.492188 87.445312 C 204.816406 86.878906 205.546875 86.472656 206.601562 86.394531 C 209.441406 86.066406 220.714844 89.636719 223.148438 91.503906 C 224.121094 92.230469 224.6875 93.207031 224.527344 93.855469 C 224.445312 94.585938 223.472656 95.3125 222.417969 95.558594 C 219.742188 96.125 209.683594 93.042969 207.738281 91.503906 C 207.007812 91.015625 206.683594 90.449219 206.683594 89.878906 C 206.765625 89.230469 207.089844 88.257812 207.980469 87.933594 C 210.007812 87.042969 217.632812 90.203125 221.851562 90.773438 C 225.335938 91.179688 229.554688 90.203125 231.421875 91.097656 C 232.3125 91.503906 233.125 92.394531 233.125 93.125 C 233.125 93.773438 232.554688 94.585938 231.339844 95.070312 C 225.660156 97.261719 180.730469 93.285156 174.726562 90.367188 C 173.347656 89.71875 172.699219 88.90625 172.617188 88.097656 C 172.617188 87.367188 173.511719 86.148438 174.644531 85.742188 C 176.996094 84.933594 185.59375 86.636719 187.460938 88.175781 C 188.351562 88.90625 188.757812 90.203125 188.515625 90.933594 C 188.273438 91.582031 187.054688 92.3125 185.917969 92.3125 C 183.8125 92.3125 177.726562 89.070312 176.917969 87.367188 C 176.429688 86.472656 176.753906 85.175781 177.242188 84.6875 C 177.808594 84.121094 178.703125 84.203125 180.160156 84.203125 C 184.136719 84.121094 200.113281 84.851562 203.113281 86.796875 C 204.085938 87.445312 204.574219 88.421875 204.492188 89.148438 C 204.332031 89.800781 203.761719 90.367188 202.789062 90.773438 C 200.113281 91.90625 188.351562 91.90625 185.839844 91.097656 C 184.945312 90.773438 184.539062 90.367188 184.296875 89.878906 C 184.054688 89.476562 183.972656 88.824219 184.214844 88.421875 C 184.539062 87.851562 185.351562 87.203125 186.570312 86.960938 C 189.324219 86.472656 198.734375 88.421875 201.085938 89.636719 C 202.058594 90.125 202.628906 90.609375 202.707031 91.257812 C 202.789062 91.90625 202.304688 93.042969 201.328125 93.53125 C 198.898438 94.664062 189.082031 91.582031 184.054688 91.421875 C 180.160156 91.257812 175.621094 92.476562 173.671875 91.988281 C 172.863281 91.746094 172.375 91.503906 172.132812 91.015625 C 171.808594 90.527344 171.726562 89.636719 171.96875 89.148438 C 172.292969 88.582031 172.863281 88.257812 173.914062 87.933594 C 177.566406 87.121094 195.894531 87.769531 199.300781 89.554688 C 200.4375 90.042969 201.003906 90.933594 201.003906 91.582031 C 201.003906 92.230469 200.277344 93.125 199.140625 93.53125 C 196.300781 94.585938 183.082031 92.558594 180.484375 91.257812 C 179.675781 90.933594 179.351562 90.449219 179.1875 89.960938 C 179.027344 89.394531 179.1875 88.5 179.511719 88.097656 C 179.835938 87.609375 180.324219 87.445312 181.214844 87.285156 C 184.621094 86.554688 201.898438 85.824219 205.140625 87.203125 C 206.113281 87.609375 206.683594 88.257812 206.765625 88.90625 C 206.84375 89.636719 206.359375 90.609375 205.222656 91.257812 C 201.25 93.53125 174.484375 94.179688 169.699219 92.558594 C 168.320312 92.070312 167.589844 91.257812 167.425781 90.527344 C 167.265625 89.800781 167.832031 88.664062 168.644531 88.175781 C 170.105469 87.285156 175.621094 87.285156 176.753906 88.339844 C 177.484375 88.988281 177.648438 90.609375 177.242188 91.257812 C 176.917969 91.828125 176.105469 92.070312 174.96875 92.230469 C 172.375 92.636719 163.210938 91.90625 161.261719 90.609375 C 160.453125 90.042969 160.046875 89.230469 160.046875 88.582031 C 160.128906 87.933594 160.613281 87.121094 161.507812 86.71875 C 163.535156 85.824219 169.859375 86.636719 173.753906 86.960938 C 177.402344 87.285156 182.511719 87.769531 184.136719 88.5 C 184.785156 88.824219 185.109375 88.988281 185.269531 89.476562 C 185.515625 89.878906 185.59375 90.773438 185.351562 91.339844 C 185.109375 91.828125 184.621094 92.230469 183.890625 92.476562 C 182.351562 92.882812 178.78125 91.746094 175.945312 91.746094 C 172.699219 91.664062 167.265625 93.207031 165.398438 92.394531 C 164.507812 92.070312 163.859375 91.257812 163.859375 90.609375 C 163.777344 89.878906 164.34375 88.90625 165.398438 88.339844 C 168.402344 86.796875 183.730469 87.121094 187.054688 88.421875 C 188.273438 88.90625 188.921875 89.636719 189.164062 90.285156 C 189.324219 90.773438 189.082031 91.339844 188.839844 91.746094 C 188.433594 92.152344 188.027344 92.394531 187.054688 92.636719 C 183.730469 93.449219 166.453125 94.339844 163.210938 92.71875 C 162.074219 92.070312 161.507812 91.015625 161.585938 90.285156 C 161.667969 89.554688 163.777344 88.339844 163.777344 88.339844 " clip-rule="nonzero"/></clipPath><clipPath id="baf03b7849"><path d="M 210.1875 87.300781 L 270.695312 87.300781 L 270.695312 109.113281 L 210.1875 109.113281 Z M 210.1875 87.300781 " clip-rule="nonzero"/></clipPath><clipPath id="beef763fd2"><path d="M 226.3125 88.421875 C 250.722656 93.855469 265.972656 100.828125 269.214844 103.910156 C 270.269531 104.964844 270.675781 105.777344 270.59375 106.589844 C 270.511719 107.398438 269.621094 108.617188 268.648438 108.941406 C 267.269531 109.347656 265.078125 108.292969 262.484375 107.480469 C 257.699219 105.9375 249.75 101.640625 242.207031 99.289062 C 233.125 96.367188 215.117188 94.503906 211.628906 92.152344 C 210.65625 91.503906 210.332031 90.933594 210.25 90.203125 C 210.25 89.394531 211.0625 87.851562 211.875 87.527344 C 212.605469 87.203125 214.308594 87.691406 214.875 88.339844 C 215.28125 88.824219 215.441406 90.042969 215.28125 90.691406 C 215.035156 91.339844 214.226562 92.230469 213.496094 92.3125 C 212.765625 92.476562 211.144531 91.90625 210.65625 91.257812 C 210.25 90.691406 210.171875 89.476562 210.496094 88.824219 C 210.902344 88.097656 211.792969 87.527344 213.171875 87.367188 C 217.875 86.71875 234.257812 91.828125 243.910156 94.746094 C 252.832031 97.421875 266.132812 101.882812 269.136719 103.910156 C 269.945312 104.480469 270.1875 104.804688 270.433594 105.371094 C 270.675781 105.859375 270.675781 106.667969 270.433594 107.238281 C 270.269531 107.804688 269.785156 108.371094 269.214844 108.695312 C 268.730469 108.941406 268.242188 109.019531 267.351562 108.941406 C 264.675781 108.535156 256.320312 104.234375 251.695312 101.882812 C 247.886719 99.855469 245.371094 97.261719 241.394531 95.882812 C 236.691406 94.179688 227.527344 94.179688 225.175781 93.125 C 224.445312 92.800781 224.121094 92.476562 223.878906 91.988281 C 223.632812 91.503906 223.554688 90.773438 223.632812 90.285156 C 223.796875 89.800781 224.203125 89.148438 224.605469 88.90625 C 225.09375 88.582031 226.3125 88.421875 226.3125 88.421875 " clip-rule="nonzero"/></clipPath><clipPath id="69c9d9d093"><path d="M 246 94.898438 L 293.46875 94.898438 L 293.46875 116.414062 L 246 116.414062 Z M 246 94.898438 " clip-rule="nonzero"/></clipPath><clipPath id="e84cf95486"><path d="M 252.75 96.289062 C 262.566406 97.019531 263.945312 97.503906 266.78125 98.558594 C 272.542969 100.828125 288.601562 108.859375 291.761719 111.050781 C 292.574219 111.617188 292.898438 111.859375 293.140625 112.347656 C 293.386719 112.914062 293.546875 113.726562 293.304688 114.292969 C 293.0625 115.023438 292.167969 116.078125 290.953125 116.320312 C 288.277344 116.808594 280.410156 113.320312 276.597656 111.535156 C 273.921875 110.320312 271.082031 109.019531 270.027344 107.640625 C 269.460938 106.914062 269.214844 106.019531 269.296875 105.289062 C 269.460938 104.558594 270.109375 103.667969 270.917969 103.34375 C 272.136719 102.855469 274.648438 103.507812 276.921875 104.234375 C 280.488281 105.289062 288.03125 108.453125 289.574219 110.5625 C 290.222656 111.535156 290.382812 112.753906 289.980469 113.402344 C 289.65625 114.132812 288.4375 114.941406 287.464844 114.859375 C 286.085938 114.78125 284.21875 111.941406 282.4375 110.886719 C 280.652344 109.832031 279.515625 109.507812 276.921875 108.617188 C 271 106.507812 251.046875 101.804688 247.722656 100.019531 C 246.992188 99.613281 246.75 99.449219 246.425781 98.964844 C 246.183594 98.394531 245.9375 97.179688 246.34375 96.53125 C 246.75 95.800781 248.289062 94.988281 249.101562 94.988281 C 249.832031 95.070312 250.722656 95.882812 251.046875 96.449219 C 251.371094 96.9375 251.453125 97.585938 251.292969 98.152344 C 251.046875 98.800781 250.316406 99.695312 249.667969 100.019531 C 249.183594 100.261719 248.535156 100.34375 248.046875 100.179688 C 247.398438 99.9375 246.507812 99.125 246.183594 98.476562 C 246.019531 97.992188 245.9375 97.261719 246.183594 96.773438 C 246.585938 96.125 247.480469 95.234375 248.859375 94.988281 C 252.101562 94.421875 261.347656 97.910156 267.269531 99.773438 C 273.109375 101.558594 280.246094 103.585938 284.21875 105.9375 C 286.816406 107.5625 289.25 109.589844 289.898438 111.050781 C 290.304688 111.941406 290.304688 112.832031 289.980469 113.402344 C 289.734375 114.050781 289.085938 114.699219 288.113281 114.859375 C 285.195312 115.183594 271.324219 109.507812 269.621094 107.15625 C 269.054688 106.265625 269.214844 105.289062 269.539062 104.640625 C 269.945312 103.992188 271.082031 103.183594 272.136719 103.183594 C 273.757812 103.183594 276.027344 105.613281 278.382812 106.589844 C 281.300781 107.722656 285.84375 108.128906 288.355469 109.183594 C 290.058594 109.832031 291.4375 110.5625 292.332031 111.375 C 292.898438 111.859375 293.304688 112.347656 293.386719 112.996094 C 293.464844 113.804688 292.898438 115.347656 292.167969 115.835938 C 291.601562 116.320312 290.871094 116.320312 289.65625 116.078125 C 285.679688 115.347656 270.433594 105.535156 265.078125 103.34375 C 262.644531 102.289062 261.511719 101.964844 259.484375 101.558594 C 257.132812 101.074219 253.074219 101.882812 251.617188 100.910156 C 250.722656 100.425781 250.316406 99.207031 250.316406 98.476562 C 250.316406 97.828125 250.722656 97.261719 251.128906 96.855469 C 251.535156 96.53125 252.75 96.289062 252.75 96.289062 " clip-rule="nonzero"/></clipPath><clipPath id="67e80b14ae"><path d="M 279.667969 104.917969 L 294.605469 104.917969 L 294.605469 114.199219 L 279.667969 114.199219 Z M 279.667969 104.917969 " clip-rule="nonzero"/></clipPath><clipPath id="0d2cd4ffd3"><path d="M 282.191406 104.964844 C 289.980469 106.425781 292.816406 108.535156 293.792969 109.75 C 294.277344 110.320312 294.519531 110.804688 294.519531 111.375 C 294.601562 111.941406 294.441406 112.753906 294.035156 113.15625 C 293.464844 113.726562 291.925781 114.210938 291.195312 114.050781 C 290.628906 113.96875 290.058594 113.480469 289.816406 112.996094 C 289.492188 112.347656 289.332031 111.210938 289.574219 110.5625 C 289.816406 109.914062 290.789062 109.183594 291.4375 109.019531 C 292.167969 108.859375 293.304688 109.183594 293.792969 109.75 C 294.277344 110.238281 294.683594 111.375 294.519531 112.023438 C 294.277344 112.832031 292.980469 114.050781 292.167969 114.132812 C 291.4375 114.292969 290.382812 113.726562 289.980469 113.238281 C 289.492188 112.671875 289.25 111.535156 289.492188 110.804688 C 289.816406 110.074219 291.195312 109.019531 292.007812 108.941406 C 292.738281 108.941406 293.792969 109.589844 294.195312 110.238281 C 294.519531 110.804688 294.683594 112.023438 294.359375 112.589844 C 293.953125 113.320312 292.738281 114.210938 291.84375 114.132812 C 290.464844 114.132812 288.84375 111.453125 287.058594 110.644531 C 285.113281 109.832031 281.542969 110.320312 280.488281 109.347656 C 279.761719 108.617188 279.515625 107.238281 279.839844 106.507812 C 280.085938 105.777344 282.191406 104.964844 282.191406 104.964844 " clip-rule="nonzero"/></clipPath><clipPath id="6999bcea94"><path d="M 289.5625 108.765625 L 294.210938 108.765625 L 294.210938 112.667969 L 289.5625 112.667969 Z M 289.5625 108.765625 " clip-rule="nonzero"/></clipPath><clipPath id="5bc9f68ef4"><path d="M 294.195312 110.15625 C 292.089844 113.402344 290.222656 112.832031 289.734375 112.101562 C 289.332031 111.453125 289.734375 109.425781 290.382812 108.941406 C 290.953125 108.453125 293.546875 109.183594 293.546875 109.183594 " clip-rule="nonzero"/></clipPath><clipPath id="c2d71cf219"><path d="M 288.628906 109.171875 L 293.234375 109.171875 L 293.234375 113.117188 L 288.628906 113.117188 Z M 288.628906 109.171875 " clip-rule="nonzero"/></clipPath><clipPath id="6f2541e939"><path d="M 293.222656 110.5625 C 291.195312 113.886719 289.25 113.238281 288.84375 112.589844 C 288.4375 111.859375 288.761719 109.914062 289.410156 109.347656 C 290.058594 108.859375 292.65625 109.589844 292.65625 109.589844 " clip-rule="nonzero"/></clipPath><clipPath id="dc87b1b1a6"><path d="M 288.230469 108.175781 L 293.414062 108.175781 L 293.414062 116.707031 L 288.230469 116.707031 Z M 288.230469 108.175781 " clip-rule="nonzero"/></clipPath><clipPath id="60cc5c1ed6"><path d="M 293.386719 110.644531 C 293.140625 115.429688 292.816406 115.996094 292.332031 116.238281 C 291.683594 116.5625 290.140625 116.644531 289.492188 116.238281 C 288.925781 115.914062 288.4375 114.859375 288.4375 114.210938 C 288.519531 113.402344 289.574219 112.101562 290.304688 111.859375 C 290.953125 111.617188 292.007812 111.941406 292.492188 112.347656 C 293.0625 112.753906 293.464844 113.804688 293.386719 114.457031 C 293.222656 115.265625 292.089844 116.484375 291.359375 116.644531 C 290.628906 116.808594 289.574219 116.402344 289.167969 115.914062 C 288.679688 115.429688 288.355469 114.375 288.519531 113.726562 C 288.679688 112.996094 289.410156 112.183594 289.980469 111.941406 C 290.628906 111.699219 291.761719 111.777344 292.332031 112.183594 C 292.898438 112.589844 293.386719 113.5625 293.386719 114.210938 C 293.386719 114.859375 292.898438 115.914062 292.332031 116.238281 C 291.683594 116.644531 290.140625 116.644531 289.492188 116.238281 C 288.925781 115.914062 288.679688 115.023438 288.4375 114.210938 C 288.195312 113.078125 288.195312 111.050781 288.519531 109.996094 C 288.761719 109.347656 289.085938 108.859375 289.574219 108.617188 C 290.058594 108.292969 291.195312 108.046875 291.761719 108.292969 C 292.492188 108.617188 293.386719 110.644531 293.386719 110.644531 " clip-rule="nonzero"/></clipPath><clipPath id="d32e2b2560"><path d="M 289 108.507812 L 294.398438 108.507812 L 294.398438 117.785156 L 289 117.785156 Z M 289 108.507812 " clip-rule="nonzero"/></clipPath><clipPath id="39f7bfe875"><path d="M 289.007812 115.023438 C 289.898438 109.347656 290.464844 108.617188 291.195312 108.535156 C 292.007812 108.371094 293.546875 108.941406 293.953125 109.589844 C 294.359375 110.15625 294.359375 111.292969 294.117188 111.941406 C 293.792969 112.589844 292.980469 113.320312 292.25 113.320312 C 291.4375 113.402344 289.980469 112.589844 289.574219 111.941406 C 289.25 111.292969 289.332031 110.15625 289.734375 109.589844 C 290.222656 108.941406 291.761719 108.371094 292.492188 108.535156 C 293.222656 108.617188 293.871094 109.347656 294.195312 110.074219 C 294.601562 111.050781 294.277344 112.589844 294.117188 113.726562 C 294.035156 114.78125 293.953125 116.078125 293.464844 116.726562 C 293.140625 117.214844 292.574219 117.617188 292.007812 117.699219 C 291.359375 117.863281 290.304688 117.617188 289.816406 117.132812 C 289.332031 116.726562 289.007812 115.023438 289.007812 115.023438 " clip-rule="nonzero"/></clipPath><clipPath id="497bb0477b"><path d="M 79.484375 107.796875 L 82.367188 107.796875 L 82.367188 116.339844 L 79.484375 116.339844 Z M 79.484375 107.796875 " clip-rule="nonzero"/></clipPath><clipPath id="2168ab5887"><path d="M 82.347656 109.019531 C 82.023438 115.996094 81.453125 116.320312 81.050781 116.320312 C 80.644531 116.238281 79.914062 115.347656 79.914062 114.941406 C 79.914062 114.617188 80.238281 114.132812 80.5625 113.96875 C 80.886719 113.804688 81.777344 113.96875 82.023438 114.210938 C 82.265625 114.535156 82.347656 115.347656 82.183594 115.753906 C 82.023438 115.996094 81.535156 116.320312 81.210938 116.320312 C 80.804688 116.320312 80.238281 115.996094 79.996094 115.511719 C 79.347656 114.375 79.347656 110.320312 79.914062 109.019531 C 80.15625 108.371094 80.886719 107.804688 81.292969 107.804688 C 81.699219 107.886719 82.347656 109.019531 82.347656 109.019531 " clip-rule="nonzero"/></clipPath><clipPath id="c4840ca803"><path d="M 79.230469 108.90625 L 81.925781 108.90625 L 81.925781 117.09375 L 79.230469 117.09375 Z M 79.230469 108.90625 " clip-rule="nonzero"/></clipPath><clipPath id="5f6eba24a0"><path d="M 79.265625 115.914062 C 79.671875 109.183594 80.480469 108.941406 80.804688 109.019531 C 81.128906 109.101562 81.535156 109.832031 81.535156 110.15625 C 81.535156 110.480469 81.210938 110.886719 80.96875 111.050781 C 80.644531 111.128906 79.832031 111.050781 79.589844 110.804688 C 79.347656 110.644531 79.265625 110.074219 79.347656 109.832031 C 79.425781 109.507812 79.996094 108.941406 80.320312 108.941406 C 80.726562 108.941406 81.210938 109.183594 81.453125 109.671875 C 82.023438 110.722656 82.101562 114.699219 81.535156 115.914062 C 81.292969 116.5625 80.644531 117.132812 80.238281 117.050781 C 79.914062 117.050781 79.265625 115.914062 79.265625 115.914062 " clip-rule="nonzero"/></clipPath><clipPath id="2c8e7810d1"><path d="M 78.421875 107.125 L 81.183594 107.125 L 81.183594 115.617188 L 78.421875 115.617188 Z M 78.421875 107.125 " clip-rule="nonzero"/></clipPath><clipPath id="8256c6d700"><path d="M 78.453125 114.457031 C 78.859375 107.398438 79.347656 107.074219 79.671875 107.15625 C 80.074219 107.15625 80.726562 107.96875 80.726562 108.371094 C 80.804688 108.695312 80.480469 109.101562 80.15625 109.265625 C 79.832031 109.347656 79.101562 109.265625 78.859375 109.019531 C 78.617188 108.777344 78.453125 108.292969 78.535156 107.96875 C 78.617188 107.640625 79.265625 107.15625 79.589844 107.15625 C 79.914062 107.074219 80.480469 107.398438 80.726562 107.886719 C 81.292969 108.941406 81.292969 113.15625 80.804688 114.457031 C 80.5625 115.023438 80.15625 115.589844 79.75 115.589844 C 79.347656 115.589844 78.453125 114.457031 78.453125 114.457031 " clip-rule="nonzero"/></clipPath><clipPath id="f73eb29edd"><path d="M 291.1875 107.527344 L 293.984375 107.527344 L 293.984375 118.128906 L 291.1875 118.128906 Z M 291.1875 107.527344 " clip-rule="nonzero"/></clipPath><clipPath id="2a2b75f30d"><path d="M 293.953125 108.695312 C 293.464844 117.863281 292.738281 118.105469 292.414062 118.023438 C 292.089844 117.941406 291.761719 117.214844 291.761719 116.886719 C 291.761719 116.644531 292.007812 116.160156 292.332031 116.078125 C 292.65625 115.914062 293.304688 116.078125 293.546875 116.320312 C 293.792969 116.484375 293.953125 116.96875 293.871094 117.292969 C 293.792969 117.617188 293.222656 118.105469 292.898438 118.105469 C 292.492188 118.105469 292.007812 117.617188 291.761719 117.050781 C 291.113281 115.589844 291.035156 110.15625 291.601562 108.695312 C 291.925781 108.046875 292.574219 107.5625 292.980469 107.5625 C 293.304688 107.5625 293.953125 108.695312 293.953125 108.695312 " clip-rule="nonzero"/></clipPath><clipPath id="74d4ba416e"><path d="M 292.1875 108.011719 L 295.011719 108.011719 L 295.011719 116.652344 L 292.1875 116.652344 Z M 292.1875 108.011719 " clip-rule="nonzero"/></clipPath><clipPath id="a5fc76c448"><path d="M 295.007812 109.183594 C 294.601562 116.320312 294.035156 116.644531 293.710938 116.644531 C 293.304688 116.5625 292.65625 115.753906 292.65625 115.347656 C 292.65625 114.941406 293.222656 114.375 293.546875 114.292969 C 293.871094 114.210938 294.441406 114.375 294.601562 114.699219 C 294.84375 114.941406 294.925781 115.753906 294.765625 116.078125 C 294.601562 116.320312 294.195312 116.644531 293.871094 116.644531 C 293.464844 116.5625 292.980469 116.320312 292.65625 115.835938 C 292.089844 114.78125 292.089844 110.480469 292.574219 109.183594 C 292.816406 108.617188 293.222656 108.046875 293.628906 108.046875 C 294.035156 107.96875 295.007812 109.183594 295.007812 109.183594 " clip-rule="nonzero"/></clipPath><clipPath id="4cbcad83fb"><path d="M 293.023438 108.121094 L 295.875 108.121094 L 295.875 116.347656 L 293.023438 116.347656 Z M 293.023438 108.121094 " clip-rule="nonzero"/></clipPath><clipPath id="ba58752595"><path d="M 295.820312 109.347656 C 295.496094 115.996094 294.925781 116.402344 294.601562 116.320312 C 294.117188 116.238281 293.386719 115.429688 293.386719 114.941406 C 293.464844 114.617188 294.035156 113.96875 294.441406 113.886719 C 294.765625 113.804688 295.25 114.050781 295.496094 114.292969 C 295.738281 114.535156 295.898438 115.023438 295.820312 115.347656 C 295.738281 115.753906 295.089844 116.320312 294.683594 116.320312 C 294.277344 116.320312 293.792969 115.996094 293.464844 115.511719 C 292.898438 114.457031 292.898438 110.5625 293.386719 109.347656 C 293.710938 108.695312 294.359375 108.128906 294.765625 108.128906 C 295.171875 108.128906 295.820312 109.347656 295.820312 109.347656 " clip-rule="nonzero"/></clipPath><clipPath id="432e8c2a2c"><path d="M 293.5 108.410156 L 296.3125 108.410156 L 296.3125 115.371094 L 293.5 115.371094 Z M 293.5 108.410156 " clip-rule="nonzero"/></clipPath><clipPath id="2602af7a46"><path d="M 296.304688 109.671875 C 295.65625 115.265625 295.007812 115.429688 294.601562 115.265625 C 294.277344 115.183594 293.710938 114.457031 293.792969 114.132812 C 293.871094 113.726562 294.683594 112.914062 295.089844 112.996094 C 295.496094 112.996094 296.222656 113.886719 296.144531 114.292969 C 296.144531 114.699219 295.496094 115.265625 295.171875 115.347656 C 294.765625 115.429688 294.117188 115.105469 293.871094 114.617188 C 293.386719 113.644531 293.386719 109.996094 293.953125 109.101562 C 294.277344 108.617188 294.84375 108.371094 295.171875 108.453125 C 295.574219 108.535156 296.304688 109.671875 296.304688 109.671875 " clip-rule="nonzero"/></clipPath><clipPath id="d6ac564af6"><path d="M 109 204.945312 L 125 204.945312 L 125 221 L 109 221 Z M 109 204.945312 " clip-rule="nonzero"/></clipPath><clipPath id="97a6747ac2"><path d="M 141 219 L 168.503906 219 L 168.503906 286.050781 L 141 286.050781 Z M 141 219 " clip-rule="nonzero"/></clipPath><clipPath id="38c77df886"><path d="M 105 129 L 166 129 L 166 198.347656 L 105 198.347656 Z M 105 129 " clip-rule="nonzero"/></clipPath><clipPath id="86edb9fa92"><path d="M 198.332031 229 L 272 229 L 272 284.6875 L 198.332031 284.6875 Z M 198.332031 229 " clip-rule="nonzero"/></clipPath><clipPath id="869e30ffcc"><path d="M 248.605469 218.988281 L 267.140625 218.988281 L 267.140625 237.523438 L 248.605469 237.523438 Z M 248.605469 218.988281 " clip-rule="nonzero"/></clipPath><clipPath id="56b2d81597"><path d="M 257.875 218.988281 C 252.753906 218.988281 248.605469 223.140625 248.605469 228.257812 C 248.605469 233.375 252.753906 237.523438 257.875 237.523438 C 262.992188 237.523438 267.140625 233.375 267.140625 228.257812 C 267.140625 223.140625 262.992188 218.988281 257.875 218.988281 Z M 257.875 218.988281 " clip-rule="nonzero"/></clipPath><clipPath id="89ebe2eecc"><path d="M 248.097656 218.988281 L 267.140625 218.988281 L 267.140625 238.035156 L 248.097656 238.035156 Z M 248.097656 218.988281 " clip-rule="nonzero"/></clipPath><clipPath id="60fd920829"><path d="M 257.617188 218.988281 C 252.359375 218.988281 248.097656 223.253906 248.097656 228.511719 C 248.097656 233.769531 252.359375 238.035156 257.617188 238.035156 C 262.878906 238.035156 267.140625 233.769531 267.140625 228.511719 C 267.140625 223.253906 262.878906 218.988281 257.617188 218.988281 Z M 257.617188 218.988281 " clip-rule="nonzero"/></clipPath></defs><rect x="-37.5" width="450" fill="#ffffff" y="-37.499999" height="449.999989" fill-opacity="1"/><rect x="-37.5" width="450" fill="#ffffff" y="-37.499999" height="449.999989" fill-opacity="1"/><g clip-path="url(#76c58c985a)"><path fill="#000000" d="M 189.027344 305.769531 L 186.613281 303.605469 C 179.644531 299.414062 125.21875 266.3125 97.546875 238.921875 C 96.914062 238.292969 96.21875 237.621094 95.480469 236.90625 C 84.054688 225.871094 62.789062 205.328125 62.789062 158.734375 L 62.789062 33.433594 L 62.796875 33.320312 C 62.824219 32.855469 62.863281 32.414062 62.902344 31.972656 L 63.125 29.5 L 65.308594 28.648438 C 116.785156 8.566406 154.125 0 190.160156 0 C 226.515625 0 263.09375 8.574219 312.472656 28.667969 L 314.597656 29.53125 L 314.820312 31.925781 C 314.867188 32.402344 314.910156 32.878906 314.933594 33.378906 L 314.933594 158.734375 C 314.933594 205.324219 293.675781 225.867188 282.253906 236.90625 C 281.515625 237.621094 280.820312 238.289062 280.183594 238.921875 C 252.6875 266.136719 198.488281 299.164062 191.222656 303.546875 Z M 70.34375 34.804688 L 70.34375 158.734375 C 70.34375 202.113281 90.105469 221.203125 100.722656 231.460938 C 101.488281 232.199219 102.199219 232.886719 102.855469 233.539062 C 128.351562 258.773438 177.535156 289.242188 188.867188 296.128906 C 200.144531 289.269531 249.433594 258.71875 274.871094 233.539062 C 275.53125 232.886719 276.246094 232.195312 277.007812 231.460938 C 287.621094 221.203125 307.378906 202.109375 307.378906 158.734375 L 307.378906 34.765625 C 260.097656 15.714844 224.929688 7.566406 190.160156 7.566406 C 155.652344 7.566406 119.710938 15.726562 70.34375 34.804688 Z M 70.34375 34.804688 " fill-opacity="1" fill-rule="nonzero"/></g><g clip-path="url(#7e0f474d2f)"><path fill="#000000" d="M 188.863281 288.589844 L 188.269531 288.222656 C 171.460938 277.84375 129.933594 251.296875 107.371094 228.964844 C 106.695312 228.296875 105.964844 227.585938 105.183594 226.832031 C 94.554688 216.5625 76.765625 199.378906 76.765625 158.734375 L 76.765625 39.230469 L 77.5 38.953125 C 123.699219 21.464844 157.390625 14 190.160156 14 C 223.128906 14 256.050781 21.429688 300.238281 38.84375 L 300.957031 39.128906 L 300.957031 158.734375 C 300.957031 199.375 283.175781 216.5625 272.550781 226.828125 C 271.765625 227.585938 271.035156 228.296875 270.359375 228.960938 C 247.859375 251.234375 206.289062 277.824219 189.460938 288.222656 Z M 79.035156 40.800781 L 79.035156 158.734375 C 79.035156 198.414062 96.386719 215.179688 106.753906 225.195312 C 107.542969 225.957031 108.28125 226.671875 108.964844 227.347656 C 131.101562 249.257812 171.757812 275.339844 188.863281 285.921875 C 205.992188 275.316406 246.691406 249.199219 268.765625 227.347656 C 269.445312 226.675781 270.183594 225.957031 270.976562 225.195312 C 281.339844 215.179688 298.691406 198.410156 298.691406 158.734375 L 298.691406 40.675781 C 255.140625 23.570312 222.648438 16.269531 190.160156 16.269531 C 157.855469 16.269531 124.585938 23.609375 79.035156 40.800781 Z M 79.035156 40.800781 " fill-opacity="1" fill-rule="nonzero"/></g><g clip-path="url(#a86e36e6bb)"><path fill="#000000" d="M 187.8125 374.71875 L 185.417969 372.582031 C 178.515625 368.445312 124.613281 335.78125 97.207031 308.753906 C 96.578125 308.132812 95.890625 307.472656 95.160156 306.765625 C 83.84375 295.878906 62.78125 275.605469 62.78125 229.628906 L 62.78125 105.988281 L 62.789062 105.878906 C 62.816406 105.421875 62.855469 104.988281 62.894531 104.550781 L 63.113281 102.109375 L 65.277344 101.269531 C 116.257812 81.457031 153.242188 73 188.929688 73 C 224.9375 73 261.164062 81.460938 310.070312 101.289062 L 312.175781 102.140625 L 312.398438 104.503906 C 312.441406 104.976562 312.484375 105.445312 312.503906 105.9375 L 312.507812 106.097656 L 312.507812 229.628906 C 312.507812 275.601562 291.453125 295.875 280.140625 306.765625 C 279.410156 307.46875 278.722656 308.132812 278.089844 308.753906 C 250.859375 335.609375 197.179688 368.199219 189.980469 372.523438 Z M 70.265625 107.347656 L 70.265625 229.628906 C 70.265625 272.433594 89.835938 291.273438 100.351562 301.394531 C 101.109375 302.121094 101.816406 302.800781 102.464844 303.441406 C 127.714844 328.34375 176.425781 358.40625 187.648438 365.203125 C 198.820312 358.433594 247.636719 328.289062 272.832031 303.441406 C 273.480469 302.800781 274.191406 302.117188 274.945312 301.390625 C 285.457031 291.269531 305.027344 272.429688 305.027344 229.628906 L 305.027344 107.308594 C 258.199219 88.507812 223.367188 80.46875 188.929688 80.46875 C 154.753906 80.46875 119.15625 88.519531 70.265625 107.347656 Z M 70.265625 107.347656 " fill-opacity="1" fill-rule="nonzero"/></g><path fill="#000000" d="M 187.648438 357.765625 L 187.058594 357.402344 C 170.414062 347.160156 129.28125 320.964844 106.9375 298.929688 C 106.269531 298.269531 105.542969 297.570312 104.769531 296.824219 C 94.242188 286.695312 76.625 269.738281 76.625 229.628906 L 76.625 111.714844 L 77.351562 111.441406 C 123.105469 94.179688 156.476562 86.816406 188.929688 86.816406 C 221.582031 86.816406 254.1875 94.148438 297.953125 111.332031 L 298.667969 111.609375 L 298.667969 229.628906 C 298.667969 269.734375 281.050781 286.691406 270.53125 296.824219 C 269.753906 297.570312 269.027344 298.269531 268.363281 298.925781 C 246.078125 320.902344 204.90625 347.140625 188.238281 357.402344 Z M 78.871094 113.261719 L 78.871094 229.628906 C 78.871094 268.785156 96.058594 285.328125 106.328125 295.210938 C 107.109375 295.964844 107.839844 296.667969 108.515625 297.335938 C 130.4375 318.953125 170.703125 344.6875 187.648438 355.132812 C 204.613281 344.667969 244.921875 318.894531 266.785156 297.332031 C 267.457031 296.667969 268.1875 295.964844 268.96875 295.210938 C 279.238281 285.324219 296.421875 268.78125 296.421875 229.628906 L 296.421875 113.136719 C 253.289062 96.261719 221.109375 89.054688 188.929688 89.054688 C 156.933594 89.054688 123.984375 96.296875 78.871094 113.261719 Z M 78.871094 113.261719 " fill-opacity="1" fill-rule="nonzero"/><g clip-path="url(#ba62532c22)"><g clip-path="url(#04d2d62c47)"><path fill="#ffffff" d="M 77.5625 85.5 L 182.734375 85.5 L 182.734375 116.484375 L 77.5625 116.484375 Z M 77.5625 85.5 " fill-opacity="1" fill-rule="nonzero"/></g></g><g clip-path="url(#b96635f0db)"><g clip-path="url(#628f6ad7f5)"><path fill="#ffffff" d="M 156.800781 80.957031 L 252.003906 80.957031 L 252.003906 108.128906 L 156.800781 108.128906 Z M 156.800781 80.957031 " fill-opacity="1" fill-rule="nonzero"/></g></g><g clip-path="url(#baf03b7849)"><g clip-path="url(#beef763fd2)"><path fill="#ffffff" d="M 207.007812 84.121094 L 273.875 84.121094 L 273.875 112.183594 L 207.007812 112.183594 Z M 207.007812 84.121094 " fill-opacity="1" fill-rule="nonzero"/></g></g><g clip-path="url(#69c9d9d093)"><g clip-path="url(#e84cf95486)"><path fill="#ffffff" d="M 242.9375 91.746094 L 296.621094 91.746094 L 296.621094 119.566406 L 242.9375 119.566406 Z M 242.9375 91.746094 " fill-opacity="1" fill-rule="nonzero"/></g></g><g clip-path="url(#67e80b14ae)"><g clip-path="url(#0d2cd4ffd3)"><path fill="#ffffff" d="M 276.597656 101.722656 L 297.863281 101.722656 L 297.863281 117.457031 L 276.597656 117.457031 Z M 276.597656 101.722656 " fill-opacity="1" fill-rule="nonzero"/></g></g><g clip-path="url(#6999bcea94)"><g clip-path="url(#5bc9f68ef4)"><path fill="#ffffff" d="M 286.492188 105.695312 L 297.449219 105.695312 L 297.449219 116.320312 L 286.492188 116.320312 Z M 286.492188 105.695312 " fill-opacity="1" fill-rule="nonzero"/></g></g><g clip-path="url(#c2d71cf219)"><g clip-path="url(#6f2541e939)"><path fill="#ffffff" d="M 285.597656 106.101562 L 296.554688 106.101562 L 296.554688 116.726562 L 285.597656 116.726562 Z M 285.597656 106.101562 " fill-opacity="1" fill-rule="nonzero"/></g></g><g clip-path="url(#dc87b1b1a6)"><g clip-path="url(#60cc5c1ed6)"><path fill="#ffffff" d="M 285.195312 105.046875 L 296.628906 105.046875 L 296.628906 119.878906 L 285.195312 119.878906 Z M 285.195312 105.046875 " fill-opacity="1" fill-rule="nonzero"/></g></g><g clip-path="url(#d32e2b2560)"><g clip-path="url(#39f7bfe875)"><path fill="#ffffff" d="M 285.761719 105.289062 L 297.523438 105.289062 L 297.523438 121.046875 L 285.761719 121.046875 Z M 285.761719 105.289062 " fill-opacity="1" fill-rule="nonzero"/></g></g><g clip-path="url(#497bb0477b)"><g clip-path="url(#2168ab5887)"><path fill="#ffffff" d="M 76.667969 104.558594 L 85.671875 104.558594 L 85.671875 119.578125 L 76.667969 119.578125 Z M 76.667969 104.558594 " fill-opacity="1" fill-rule="nonzero"/></g></g><g clip-path="url(#c4840ca803)"><g clip-path="url(#5f6eba24a0)"><path fill="#ffffff" d="M 76.019531 105.695312 L 84.859375 105.695312 L 84.859375 120.371094 L 76.019531 120.371094 Z M 76.019531 105.695312 " fill-opacity="1" fill-rule="nonzero"/></g></g><g clip-path="url(#2c8e7810d1)"><g clip-path="url(#8256c6d700)"><path fill="#ffffff" d="M 75.210938 103.910156 L 84.050781 103.910156 L 84.050781 118.898438 L 75.210938 118.898438 Z M 75.210938 103.910156 " fill-opacity="1" fill-rule="nonzero"/></g></g><g clip-path="url(#f73eb29edd)"><g clip-path="url(#2a2b75f30d)"><path fill="#ffffff" d="M 288.355469 104.316406 L 297.199219 104.316406 L 297.199219 121.34375 L 288.355469 121.34375 Z M 288.355469 104.316406 " fill-opacity="1" fill-rule="nonzero"/></g></g><g clip-path="url(#74d4ba416e)"><g clip-path="url(#a5fc76c448)"><path fill="#ffffff" d="M 289.332031 104.804688 L 298.253906 104.804688 L 298.253906 119.894531 L 289.332031 119.894531 Z M 289.332031 104.804688 " fill-opacity="1" fill-rule="nonzero"/></g></g><g clip-path="url(#4cbcad83fb)"><g clip-path="url(#ba58752595)"><path fill="#ffffff" d="M 290.140625 104.886719 L 299.144531 104.886719 L 299.144531 119.550781 L 290.140625 119.550781 Z M 290.140625 104.886719 " fill-opacity="1" fill-rule="nonzero"/></g></g><g clip-path="url(#432e8c2a2c)"><g clip-path="url(#2602af7a46)"><path fill="#ffffff" d="M 290.546875 105.210938 L 299.550781 105.210938 L 299.550781 118.679688 L 290.546875 118.679688 Z M 290.546875 105.210938 " fill-opacity="1" fill-rule="nonzero"/></g></g><path fill="#000000" d="M 132.40625 266.140625 C 132.042969 264.449219 131.390625 261.296875 131.105469 259.152344 C 130.871094 257.394531 131.296875 255.621094 132.296875 254.152344 L 133.503906 252.386719 L 132.851562 248.894531 L 127.285156 249.871094 C 126.984375 249.921875 126.675781 249.949219 126.367188 249.949219 C 125.652344 249.949219 124.953125 249.808594 124.292969 249.523438 C 124.175781 249.492188 124.054688 249.449219 123.933594 249.410156 L 126.472656 262.972656 L 117.636719 279.28125 C 116.476562 281.421875 117.28125 284.089844 119.4375 285.242188 C 120.105469 285.601562 120.824219 285.769531 121.53125 285.769531 C 123.109375 285.769531 124.636719 284.929688 125.4375 283.453125 L 133.929688 267.78125 C 133.179688 267.558594 132.578125 266.941406 132.40625 266.140625 Z M 132.40625 266.140625 " fill-opacity="1" fill-rule="nonzero"/><g clip-path="url(#d6ac564af6)"><path fill="#000000" d="M 124.984375 212.875 C 124.984375 213.394531 124.933594 213.910156 124.832031 214.421875 C 124.730469 214.933594 124.578125 215.425781 124.378906 215.90625 C 124.175781 216.386719 123.933594 216.84375 123.640625 217.277344 C 123.351562 217.710938 123.019531 218.109375 122.648438 218.476562 C 122.277344 218.84375 121.875 219.175781 121.441406 219.464844 C 121.003906 219.75 120.546875 219.996094 120.0625 220.195312 C 119.578125 220.394531 119.078125 220.542969 118.566406 220.644531 C 118.050781 220.746094 117.535156 220.796875 117.011719 220.796875 C 116.488281 220.796875 115.96875 220.746094 115.453125 220.644531 C 114.941406 220.542969 114.441406 220.394531 113.957031 220.195312 C 113.472656 219.996094 113.015625 219.75 112.578125 219.464844 C 112.144531 219.175781 111.742188 218.84375 111.371094 218.476562 C 111 218.109375 110.671875 217.710938 110.378906 217.277344 C 110.089844 216.84375 109.84375 216.386719 109.640625 215.90625 C 109.441406 215.425781 109.289062 214.933594 109.1875 214.421875 C 109.085938 213.910156 109.035156 213.394531 109.035156 212.875 C 109.035156 212.355469 109.085938 211.839844 109.1875 211.332031 C 109.289062 210.820312 109.441406 210.324219 109.640625 209.84375 C 109.84375 209.363281 110.089844 208.90625 110.378906 208.476562 C 110.671875 208.042969 111 207.640625 111.371094 207.273438 C 111.742188 206.90625 112.144531 206.578125 112.578125 206.289062 C 113.015625 206 113.472656 205.757812 113.957031 205.558594 C 114.441406 205.359375 114.941406 205.207031 115.453125 205.105469 C 115.96875 205.003906 116.488281 204.953125 117.011719 204.953125 C 117.535156 204.953125 118.050781 205.003906 118.566406 205.105469 C 119.078125 205.207031 119.578125 205.359375 120.0625 205.558594 C 120.546875 205.757812 121.003906 206 121.441406 206.289062 C 121.875 206.578125 122.277344 206.90625 122.648438 207.273438 C 123.019531 207.640625 123.351562 208.042969 123.640625 208.476562 C 123.933594 208.90625 124.175781 209.363281 124.378906 209.84375 C 124.578125 210.324219 124.730469 210.820312 124.832031 211.332031 C 124.933594 211.839844 124.984375 212.355469 124.984375 212.875 Z M 124.984375 212.875 " fill-opacity="1" fill-rule="nonzero"/></g><path fill="#000000" d="M 136.914062 225.878906 C 138.707031 224.90625 140.125 223.253906 140.746094 221.152344 C 141.136719 219.828125 141.164062 218.480469 140.882812 217.21875 L 136.632812 225.46875 Z M 136.914062 225.878906 " fill-opacity="1" fill-rule="nonzero"/><path fill="#000000" d="M 128.015625 223.910156 C 128.195312 222.960938 128.738281 222.132812 129.542969 221.585938 C 129.898438 221.347656 130.289062 221.175781 130.695312 221.070312 L 135.664062 211.425781 C 135.554688 211.390625 135.449219 211.355469 135.335938 211.324219 C 131.109375 210.089844 126.679688 212.496094 125.441406 216.695312 C 124.519531 219.8125 125.621094 223.042969 127.976562 225 C 127.9375 224.644531 127.945312 224.277344 128.015625 223.910156 Z M 128.015625 223.910156 " fill-opacity="1" fill-rule="nonzero"/><g clip-path="url(#97a6747ac2)"><path fill="#000000" d="M 167.265625 235.316406 C 163.125 228.601562 159.84375 225.28125 153.53125 221.171875 C 148.925781 218.210938 144.460938 219.617188 142.546875 222.0625 C 141.449219 223.460938 141.492188 225.40625 142.289062 227.214844 L 145.222656 224.222656 C 145.914062 223.515625 146.84375 223.125 147.835938 223.125 C 148.792969 223.125 149.699219 223.492188 150.382812 224.15625 C 151.082031 224.832031 151.472656 225.734375 151.488281 226.703125 C 151.5 227.671875 151.132812 228.589844 150.453125 229.28125 L 147.265625 232.535156 C 150.710938 235.453125 154.863281 239.085938 157.488281 243.210938 L 150.738281 258.214844 C 150.257812 259.277344 150.222656 260.484375 150.640625 261.574219 L 158.914062 283.203125 C 159.585938 284.960938 161.269531 286.042969 163.054688 286.042969 C 163.578125 286.042969 164.109375 285.949219 164.628906 285.753906 C 166.914062 284.890625 168.066406 282.347656 167.195312 280.078125 L 159.574219 260.148438 L 168.035156 241.339844 C 168.433594 240.457031 168.507812 239.511719 168.320312 238.628906 C 168.226562 237.644531 167.902344 236.546875 167.265625 235.316406 Z M 167.265625 235.316406 " fill-opacity="1" fill-rule="nonzero"/></g><path fill="#000000" d="M 139.175781 239.21875 C 139.070312 239.21875 138.964844 239.210938 138.859375 239.203125 C 138.132812 239.140625 137.457031 238.863281 136.902344 238.425781 L 131.695312 239.335938 C 131.523438 239.191406 131.34375 239.039062 131.144531 238.882812 C 128.652344 237.191406 126.386719 234.882812 124.363281 232.496094 L 113.546875 231.246094 C 111.546875 231.015625 110.109375 229.210938 110.339844 227.226562 C 110.554688 225.398438 112.113281 224.019531 113.964844 224.019531 C 114.105469 224.019531 114.246094 224.027344 114.386719 224.042969 L 118.199219 224.480469 C 116.101562 221.984375 112.644531 220.695312 110.335938 222.242188 C 107.75 223.976562 106.039062 228.308594 108.707031 233.074219 C 112.410156 239.605469 115.523438 243.082031 121.988281 247.632812 C 122.914062 248.183594 123.769531 248.546875 124.566406 248.757812 C 125.347656 249.105469 126.238281 249.230469 127.144531 249.074219 L 138.054688 247.160156 L 132.972656 254.605469 C 132.085938 255.910156 131.707031 257.488281 131.914062 259.046875 C 132.199219 261.175781 132.851562 264.328125 133.203125 265.96875 C 133.371094 266.761719 134.207031 267.273438 134.96875 266.988281 C 135.144531 266.925781 135.292969 266.828125 135.390625 266.6875 L 138.855469 261.636719 C 138.886719 261.609375 138.917969 261.582031 138.9375 261.550781 L 151.269531 243.488281 C 152.269531 242.023438 152.289062 240.109375 151.320312 238.625 C 150.351562 237.140625 148.585938 236.375 146.832031 236.683594 L 142.445312 237.453125 L 141.789062 238.121094 C 141.105469 238.816406 140.152344 239.21875 139.175781 239.21875 Z M 139.175781 239.21875 " fill-opacity="1" fill-rule="nonzero"/><path fill="#000000" d="M 122.390625 231.453125 L 130.105469 232.339844 C 130.214844 232.355469 130.324219 232.359375 130.433594 232.359375 C 131.058594 232.359375 131.652344 232.152344 132.136719 231.789062 L 128.589844 226.628906 C 128.558594 226.582031 128.53125 226.53125 128.5 226.484375 L 123.085938 225.859375 Z M 122.390625 231.453125 " fill-opacity="1" fill-rule="nonzero"/><path fill="#000000" d="M 134.617188 222.535156 L 136.109375 224.707031 L 141.542969 214.160156 C 142.253906 212.773438 141.703125 211.078125 140.308594 210.367188 C 138.914062 209.660156 137.207031 210.207031 136.492188 211.59375 L 131.667969 220.960938 C 132.851562 220.980469 133.949219 221.566406 134.617188 222.535156 Z M 134.617188 222.535156 " fill-opacity="1" fill-rule="nonzero"/><path fill="#000000" d="M 121.324219 225.65625 L 114.292969 224.847656 C 112.734375 224.667969 111.332031 225.773438 111.148438 227.320312 C 110.96875 228.863281 112.082031 230.261719 113.640625 230.441406 L 120.628906 231.25 Z M 121.324219 225.65625 " fill-opacity="1" fill-rule="nonzero"/><path fill="#000000" d="M 140.664062 230.035156 L 139.558594 231.160156 L 133.945312 222.992188 C 133.0625 221.707031 131.296875 221.378906 130.003906 222.257812 C 128.710938 223.132812 128.378906 224.886719 129.261719 226.171875 L 136.832031 237.179688 C 137.3125 237.878906 138.082031 238.324219 138.929688 238.398438 C 139.011719 238.402344 139.09375 238.40625 139.175781 238.40625 C 139.9375 238.40625 140.667969 238.101562 141.207031 237.554688 L 144.527344 234.167969 Z M 140.664062 230.035156 " fill-opacity="1" fill-rule="nonzero"/><path fill="#000000" d="M 149.816406 224.734375 C 148.691406 223.648438 146.898438 223.671875 145.804688 224.789062 L 141.902344 228.769531 L 145.765625 232.902344 L 149.867188 228.71875 C 150.960938 227.601562 150.9375 225.820312 149.816406 224.734375 Z M 149.816406 224.734375 " fill-opacity="1" fill-rule="nonzero"/><path fill="#000000" d="M 249.957031 135.980469 L 271.410156 128.34375 C 273.726562 127.519531 274.929688 124.988281 274.097656 122.691406 C 273.265625 120.394531 270.71875 119.199219 268.402344 120.027344 L 246.488281 127.828125 C 246.183594 127.9375 245.886719 128.082031 245.613281 128.253906 L 232.578125 136.4375 L 217.429688 129.566406 C 219.945312 129.46875 223.011719 129.585938 225.964844 129.945312 C 226.410156 130 226.859375 129.953125 227.28125 129.800781 L 244.378906 123.671875 C 245.859375 123.144531 246.625 121.523438 246.089844 120.054688 C 245.554688 118.585938 243.921875 117.824219 242.441406 118.355469 L 225.972656 124.257812 C 224.679688 124.125 221.777344 123.867188 218.691406 123.882812 C 217.609375 123.890625 216.617188 123.933594 215.691406 124.007812 C 216.140625 125.546875 216.171875 127.226562 215.691406 128.875 C 215 131.238281 213.324219 133.214844 211.097656 134.300781 C 209.121094 135.265625 206.863281 135.460938 204.746094 134.851562 C 204.488281 134.777344 204.238281 134.691406 203.992188 134.59375 L 201.367188 140.296875 C 201.320312 140.398438 201.285156 140.496094 201.25 140.597656 C 200.074219 143.558594 201.808594 146.921875 206.421875 150.605469 C 206.429688 150.609375 206.433594 150.613281 206.4375 150.617188 C 209.355469 152.941406 212.492188 154.695312 212.625 154.769531 C 213.054688 155.011719 213.535156 155.132812 214.019531 155.132812 C 214.398438 155.132812 214.777344 155.054688 215.136719 154.90625 C 215.949219 154.558594 216.554688 153.859375 216.777344 153.011719 L 220.167969 139.984375 C 220.5625 138.472656 219.648438 136.929688 218.125 136.539062 C 216.601562 136.148438 215.046875 137.054688 214.652344 138.570312 L 212.230469 147.859375 C 210.65625 146.777344 209.246094 145.644531 208.230469 144.660156 L 208.496094 143.777344 C 209.21875 144.511719 210.300781 145.460938 211.738281 146.511719 L 213.859375 138.367188 C 214.277344 136.757812 215.738281 135.636719 217.410156 135.636719 C 217.71875 135.636719 218.027344 135.675781 218.328125 135.75 C 220.289062 136.253906 221.46875 138.242188 220.960938 140.1875 L 218.167969 150.921875 L 222.582031 152.925781 L 219.289062 164.984375 C 219.164062 165.4375 219.113281 165.910156 219.140625 166.382812 L 220.324219 187.824219 C 220.457031 190.179688 222.421875 192 224.765625 192 C 224.847656 192 224.933594 192 225.015625 191.996094 C 227.46875 191.859375 229.351562 189.777344 229.214844 187.339844 L 228.070312 166.609375 L 232.984375 148.621094 C 233.183594 147.890625 233.1875 147.152344 233.027344 146.464844 C 233.351562 146.355469 233.671875 146.207031 233.976562 146.015625 Z M 249.957031 135.980469 " fill-opacity="1" fill-rule="nonzero"/><path fill="#000000" d="M 209.441406 118.792969 C 209.945312 118.941406 210.433594 119.132812 210.898438 119.375 C 211.367188 119.613281 211.804688 119.898438 212.21875 120.222656 C 212.628906 120.550781 213.003906 120.914062 213.339844 121.3125 C 213.679688 121.714844 213.976562 122.140625 214.230469 122.597656 C 214.484375 123.058594 214.6875 123.535156 214.847656 124.03125 C 215.007812 124.53125 215.117188 125.039062 215.171875 125.558594 C 215.230469 126.078125 215.238281 126.597656 215.191406 127.117188 C 215.148438 127.636719 215.050781 128.148438 214.90625 128.648438 C 214.757812 129.152344 214.5625 129.632812 214.320312 130.097656 C 214.078125 130.558594 213.792969 130.996094 213.464844 131.402344 C 213.136719 131.8125 212.769531 132.183594 212.367188 132.519531 C 211.964844 132.855469 211.53125 133.148438 211.070312 133.402344 C 210.609375 133.652344 210.128906 133.855469 209.628906 134.015625 C 209.125 134.171875 208.613281 134.28125 208.089844 134.335938 C 207.566406 134.394531 207.042969 134.402344 206.519531 134.355469 C 205.996094 134.3125 205.480469 134.214844 204.976562 134.070312 C 204.46875 133.925781 203.984375 133.730469 203.515625 133.492188 C 203.050781 133.25 202.609375 132.96875 202.199219 132.640625 C 201.789062 132.3125 201.414062 131.953125 201.074219 131.550781 C 200.738281 131.152344 200.441406 130.722656 200.1875 130.265625 C 199.933594 129.808594 199.726562 129.332031 199.570312 128.832031 C 199.410156 128.335938 199.300781 127.828125 199.242188 127.308594 C 199.1875 126.789062 199.179688 126.269531 199.222656 125.75 C 199.269531 125.226562 199.367188 124.71875 199.511719 124.214844 C 199.660156 123.714844 199.851562 123.230469 200.097656 122.769531 C 200.339844 122.304688 200.625 121.871094 200.953125 121.460938 C 201.28125 121.054688 201.648438 120.683594 202.050781 120.347656 C 202.453125 120.011719 202.882812 119.714844 203.347656 119.464844 C 203.808594 119.210938 204.289062 119.007812 204.789062 118.851562 C 205.292969 118.691406 205.804688 118.585938 206.328125 118.527344 C 206.851562 118.46875 207.375 118.464844 207.898438 118.507812 C 208.421875 118.554688 208.9375 118.648438 209.441406 118.792969 Z M 209.441406 118.792969 " fill-opacity="1" fill-rule="nonzero"/><g clip-path="url(#38c77df886)"><path fill="#000000" d="M 107.945312 197.699219 C 108.5625 197.957031 109.199219 198.082031 109.828125 198.082031 C 111.695312 198.082031 113.472656 196.988281 114.25 195.167969 L 129.539062 159.386719 L 132.0625 159.820312 C 132.21875 160.0625 132.394531 160.300781 132.597656 160.519531 L 144.703125 173.554688 L 148.558594 194.230469 C 148.988281 196.535156 151.007812 198.144531 153.277344 198.144531 C 153.570312 198.144531 153.863281 198.117188 154.160156 198.0625 C 156.769531 197.578125 158.492188 195.082031 158.003906 192.480469 L 153.894531 170.441406 C 153.730469 169.554688 153.3125 168.730469 152.695312 168.066406 L 142.105469 156.660156 L 145.105469 139.285156 L 149.007812 144.34375 C 149.53125 145.023438 150.316406 145.453125 151.171875 145.53125 C 151.261719 145.539062 151.355469 145.542969 151.445312 145.542969 C 152.207031 145.542969 152.945312 145.261719 153.511719 144.746094 L 164.671875 134.636719 C 165.929688 133.496094 166.023438 131.558594 164.882812 130.308594 C 163.738281 129.054688 161.792969 128.964844 160.539062 130.101562 L 151.847656 137.972656 L 146.039062 130.441406 C 145.683594 129.980469 145.226562 129.652344 144.722656 129.457031 L 126.101562 141.992188 C 125.441406 142.433594 124.679688 142.667969 123.886719 142.667969 C 123.734375 142.667969 123.582031 142.65625 123.433594 142.640625 L 121.519531 153.714844 L 105.410156 191.417969 C 104.371094 193.851562 105.507812 196.660156 107.945312 197.699219 Z M 107.945312 197.699219 " fill-opacity="1" fill-rule="nonzero"/></g><path fill="#000000" d="M 143.226562 121.757812 C 144.542969 121.757812 145.769531 122.40625 146.507812 123.496094 C 146.917969 124.097656 147.140625 124.785156 147.175781 125.496094 C 148.527344 124.015625 149.371094 122.066406 149.421875 119.914062 C 149.539062 115.15625 145.761719 111.207031 140.988281 111.089844 C 136.214844 110.976562 132.25 114.738281 132.136719 119.496094 C 132.066406 122.226562 133.289062 124.691406 135.242188 126.320312 L 141.011719 122.433594 C 141.667969 121.992188 142.433594 121.757812 143.226562 121.757812 Z M 143.226562 121.757812 " fill-opacity="1" fill-rule="nonzero"/><path fill="#000000" d="M 123.886719 141.789062 C 124.480469 141.789062 125.078125 141.617188 125.605469 141.261719 L 144.949219 128.242188 C 146.355469 127.292969 146.726562 125.390625 145.773438 123.988281 C 144.824219 122.585938 142.914062 122.21875 141.507812 123.164062 L 126.699219 133.132812 L 127.226562 131.710938 L 133.507812 127.484375 L 129.191406 126.746094 C 129.015625 126.714844 128.835938 126.703125 128.664062 126.703125 C 127.609375 126.648438 126.558594 126.941406 125.636719 127.570312 C 122.476562 129.726562 121.234375 135.761719 120.847656 138.253906 C 120.84375 138.28125 120.84375 138.304688 120.839844 138.332031 C 120.832031 138.390625 120.824219 138.445312 120.820312 138.503906 C 120.816406 138.550781 120.816406 138.597656 120.8125 138.640625 C 120.8125 138.695312 120.8125 138.75 120.8125 138.804688 C 120.816406 138.851562 120.816406 138.898438 120.820312 138.945312 C 120.824219 138.996094 120.828125 139.046875 120.835938 139.097656 C 120.839844 139.148438 120.847656 139.195312 120.855469 139.242188 C 120.867188 139.292969 120.875 139.34375 120.886719 139.394531 C 120.898438 139.441406 120.910156 139.488281 120.921875 139.535156 C 120.933594 139.582031 120.949219 139.632812 120.964844 139.683594 C 120.980469 139.726562 120.996094 139.773438 121.015625 139.816406 C 121.035156 139.867188 121.054688 139.914062 121.074219 139.960938 C 121.09375 140.007812 121.117188 140.050781 121.136719 140.09375 C 121.160156 140.140625 121.183594 140.183594 121.210938 140.226562 C 121.234375 140.273438 121.261719 140.316406 121.289062 140.359375 C 121.304688 140.386719 121.320312 140.414062 121.335938 140.4375 C 121.347656 140.453125 121.355469 140.464844 121.367188 140.476562 C 121.417969 140.550781 121.476562 140.625 121.535156 140.691406 C 121.550781 140.714844 121.570312 140.738281 121.585938 140.757812 C 121.660156 140.839844 121.734375 140.914062 121.816406 140.988281 C 121.851562 141.019531 121.890625 141.050781 121.925781 141.082031 C 121.976562 141.121094 122.027344 141.164062 122.082031 141.203125 C 122.125 141.230469 122.164062 141.261719 122.207031 141.289062 C 122.261719 141.324219 122.320312 141.355469 122.375 141.386719 C 122.417969 141.414062 122.460938 141.4375 122.503906 141.457031 C 122.570312 141.492188 122.644531 141.523438 122.714844 141.550781 C 122.769531 141.574219 122.828125 141.597656 122.882812 141.617188 C 122.960938 141.640625 123.039062 141.667969 123.121094 141.6875 C 123.175781 141.703125 123.230469 141.710938 123.289062 141.722656 C 123.328125 141.730469 123.371094 141.742188 123.410156 141.75 C 123.421875 141.75 123.433594 141.75 123.441406 141.75 C 123.453125 141.753906 123.464844 141.753906 123.476562 141.757812 C 123.613281 141.777344 123.75 141.789062 123.886719 141.789062 Z M 123.886719 141.789062 " fill-opacity="1" fill-rule="nonzero"/><path fill="#000000" d="M 254.804688 237.289062 L 254.863281 234.09375 C 254.71875 234.050781 254.578125 234 254.441406 233.9375 C 252.394531 233.003906 251.667969 230.222656 252.8125 227.722656 C 253.292969 226.667969 254.035156 225.835938 254.882812 225.292969 L 254.386719 220.304688 C 254.25 220.359375 254.117188 220.421875 253.980469 220.484375 C 249.421875 222.652344 247.488281 228.09375 249.660156 232.640625 C 250.738281 234.894531 252.621094 236.503906 254.804688 237.289062 Z M 254.804688 237.289062 " fill-opacity="1" fill-rule="nonzero"/><path fill="#000000" d="M 260.214844 231.097656 C 259.363281 232.960938 257.710938 234.136719 256.078125 234.234375 L 256.015625 237.636719 C 257.914062 238.039062 259.957031 237.847656 261.84375 236.949219 C 266.402344 234.78125 268.335938 229.339844 266.164062 224.792969 C 265.988281 224.421875 265.785156 224.070312 265.566406 223.734375 L 260.601562 227.433594 C 260.886719 228.550781 260.78125 229.859375 260.214844 231.097656 Z M 260.214844 231.097656 " fill-opacity="1" fill-rule="nonzero"/><path fill="#000000" d="M 258.585938 224.886719 C 259.238281 225.183594 259.753906 225.671875 260.121094 226.277344 L 264.835938 222.761719 C 262.570312 220.140625 258.964844 219.003906 255.570312 219.902344 L 256.050781 224.75 C 256.902344 224.5 257.785156 224.519531 258.585938 224.886719 Z M 258.585938 224.886719 " fill-opacity="1" fill-rule="nonzero"/><path fill="#000000" d="M 242.949219 236.886719 C 242.882812 235.097656 241.367188 233.695312 239.578125 233.765625 C 237.785156 233.832031 236.386719 235.339844 236.453125 237.128906 L 237.097656 254.25 C 237.144531 255.488281 237.890625 256.585938 239.023438 257.089844 L 256.128906 264.699219 C 256.558594 264.890625 257.007812 264.980469 257.449219 264.980469 C 258.695312 264.980469 259.882812 264.261719 260.421875 263.058594 C 261.152344 261.421875 260.414062 259.503906 258.773438 258.777344 L 243.515625 251.988281 Z M 242.949219 236.886719 " fill-opacity="1" fill-rule="nonzero"/><g clip-path="url(#86edb9fa92)"><path fill="#000000" d="M 200.777344 275.492188 C 198.632812 277.296875 198.363281 280.492188 200.171875 282.628906 C 201.175781 283.816406 202.613281 284.425781 204.054688 284.425781 C 205.210938 284.425781 206.375 284.035156 207.328125 283.230469 L 225.335938 268.0625 C 226.839844 266.796875 227.476562 264.78125 226.96875 262.886719 L 223.410156 249.609375 L 224.371094 249.585938 L 226.214844 256.46875 L 237.226562 260.765625 L 235.882812 279.261719 C 235.683594 282.054688 237.785156 284.480469 240.582031 284.683594 C 240.707031 284.691406 240.832031 284.695312 240.953125 284.695312 C 243.59375 284.695312 245.820312 282.660156 246.015625 279.996094 L 247.332031 261.808594 L 238.640625 257.941406 C 237.175781 257.289062 236.222656 255.890625 236.164062 254.285156 L 235.980469 249.398438 L 229.84375 247.003906 C 231.871094 246.339844 233.902344 245.777344 235.824219 245.285156 L 235.519531 237.164062 C 235.476562 236.050781 235.875 234.984375 236.632812 234.167969 C 237.394531 233.351562 238.425781 232.878906 239.542969 232.835938 C 239.597656 232.832031 239.652344 232.832031 239.710938 232.832031 C 241.964844 232.832031 243.796875 234.597656 243.882812 236.851562 L 244.132812 243.484375 L 247.871094 251.074219 C 248.421875 252.1875 249.554688 252.886719 250.789062 252.886719 C 250.84375 252.886719 250.902344 252.886719 250.960938 252.882812 L 268.757812 251.945312 C 270.550781 251.851562 271.929688 250.324219 271.832031 248.539062 C 271.738281 246.75 270.210938 245.375 268.417969 245.46875 L 252.757812 246.292969 L 247.488281 235.59375 C 246.363281 232.382812 242.640625 229.304688 236.90625 229.957031 C 228.320312 230.984375 223.246094 232.738281 215.550781 237.558594 C 211.652344 240.433594 211.292969 243.507812 212.019531 246.253906 C 212.042969 246.367188 212.0625 246.484375 212.09375 246.601562 L 212.972656 249.878906 L 216.324219 262.394531 Z M 200.777344 275.492188 " fill-opacity="1" fill-rule="nonzero"/></g><path fill="#000000" d="M 253.648438 228.167969 C 252.8125 229.78125 253.085938 231.542969 253.496094 231.753906 C 253.910156 231.964844 254.019531 230.4375 254.855469 228.824219 C 255.691406 227.207031 256.9375 226.117188 256.523438 225.902344 C 256.113281 225.691406 254.484375 226.550781 253.648438 228.167969 Z M 253.648438 228.167969 " fill-opacity="1" fill-rule="nonzero"/><path fill="#000000" d="M 256.5625 233.019531 C 256.984375 233.203125 258.550781 232.234375 259.273438 230.566406 C 260 228.898438 259.605469 227.160156 259.183594 226.976562 C 258.757812 226.792969 258.75 228.324219 258.027344 229.992188 C 257.304688 231.660156 256.136719 232.835938 256.5625 233.019531 Z M 256.5625 233.019531 " fill-opacity="1" fill-rule="nonzero"/><g clip-path="url(#869e30ffcc)"><g clip-path="url(#56b2d81597)"><path fill="#2d2322" d="M 248.605469 218.988281 L 267.140625 218.988281 L 267.140625 237.523438 L 248.605469 237.523438 Z M 248.605469 218.988281 " fill-opacity="1" fill-rule="nonzero"/></g></g><g clip-path="url(#89ebe2eecc)"><g clip-path="url(#60fd920829)"><path fill="#000000" d="M 248.097656 218.988281 L 267.140625 218.988281 L 267.140625 238.035156 L 248.097656 238.035156 Z M 248.097656 218.988281 " fill-opacity="1" fill-rule="nonzero"/></g></g><g fill="#000000" fill-opacity="1"><g transform="translate(99.7741, 79.669167)"><g><path d="M 43.546875 -11.8125 L 2.078125 -0.5625 L -0.171875 -8.859375 L 16.421875 -13.359375 L 9.671875 -38.234375 L -6.921875 -33.734375 L -9.15625 -42.03125 L 32.3125 -53.28125 L 34.546875 -44.984375 L 17.96875 -40.484375 L 24.71875 -15.609375 L 41.296875 -20.109375 Z M 43.546875 -11.8125 "/></g></g></g><g fill="#000000" fill-opacity="1"><g transform="translate(142.857534, 68.60934)"><g/></g></g><g fill="#000000" fill-opacity="1"><g transform="translate(163.861512, 64.891959)"><g><path d="M 45.125 -34.375 L 45.125 -25.78125 C 45.125 -24.601562 44.703125 -23.59375 43.859375 -22.75 C 43.015625 -21.90625 42.003906 -21.484375 40.828125 -21.484375 C 42.003906 -21.484375 43.015625 -21.0625 43.859375 -20.21875 C 44.703125 -19.382812 45.125 -18.375 45.125 -17.1875 L 45.125 -8.59375 C 45.125 -7.050781 44.738281 -5.625 43.96875 -4.3125 C 43.195312 -3.007812 42.164062 -1.960938 40.875 -1.171875 C 39.59375 -0.390625 38.144531 0 36.53125 0 L 2.15625 0 L 2.15625 -42.96875 L 36.53125 -42.96875 C 38.144531 -42.96875 39.59375 -42.570312 40.875 -41.78125 C 42.164062 -41 43.195312 -39.960938 43.96875 -38.671875 C 44.738281 -37.390625 45.125 -35.957031 45.125 -34.375 Z M 36.53125 -34.375 L 10.75 -34.375 L 10.75 -25.78125 L 36.53125 -25.78125 Z M 10.75 -8.59375 L 36.53125 -8.59375 L 36.53125 -17.1875 L 10.75 -17.1875 Z M 10.75 -8.59375 "/></g></g></g><g fill="#000000" fill-opacity="1"><g transform="translate(207.969834, 65.489969)"><g/></g></g><g fill="#000000" fill-opacity="1"><g transform="translate(228.859664, 67.300826)"><g><path d="M 54.78125 -29.65625 L 52.546875 -21.359375 L 19.375 -30.359375 L 12.625 -5.484375 L 37.515625 1.265625 L 39.765625 -7.03125 L 23.171875 -11.53125 L 25.421875 -19.828125 L 50.296875 -13.078125 L 45.796875 3.515625 C 45.390625 5.003906 44.644531 6.273438 43.5625 7.328125 C 42.488281 8.390625 41.222656 9.128906 39.765625 9.546875 C 38.316406 9.972656 36.816406 9.976562 35.265625 9.5625 L 10.375 2.8125 C 8.84375 2.394531 7.546875 1.644531 6.484375 0.5625 C 5.429688 -0.519531 4.703125 -1.789062 4.296875 -3.25 C 3.898438 -4.71875 3.910156 -6.210938 4.328125 -7.734375 L 11.078125 -32.609375 C 11.484375 -34.140625 12.226562 -35.429688 13.3125 -36.484375 C 14.394531 -37.546875 15.664062 -38.273438 17.125 -38.671875 C 18.582031 -39.078125 20.078125 -39.070312 21.609375 -38.65625 Z M 54.78125 -29.65625 "/></g></g></g></svg>