<svg xmlns="http://www.w3.org/2000/svg" xmlns:xlink="http://www.w3.org/1999/xlink" width="500" zoomAndPan="magnify" viewBox="0 0 375 374.999991" height="500" preserveAspectRatio="xMidYMid meet" version="1.0"><defs><g/><clipPath id="c201cd75d5"><path d="M 80 37.5 L 295 37.5 L 295 289.417969 L 80 289.417969 Z M 80 37.5 " clip-rule="nonzero"/></clipPath><clipPath id="53806258d9"><path d="M 80 85.355469 L 295 85.355469 L 295 337.273438 L 80 337.273438 Z M 80 85.355469 " clip-rule="nonzero"/></clipPath><clipPath id="b7cd68e61f"><path d="M 127 246 L 144 246 L 144 281.652344 L 127 281.652344 Z M 127 246 " clip-rule="nonzero"/></clipPath><clipPath id="c1d4fc9ab2"><path d="M 151 217 L 176.746094 217 L 176.746094 281.652344 L 151 281.652344 Z M 151 217 " clip-rule="nonzero"/></clipPath><clipPath id="36671386d8"><path d="M 195 121 L 270.871094 121 L 270.871094 197.199219 L 195 197.199219 Z M 195 121 " clip-rule="nonzero"/></clipPath><clipPath id="fd29d2514c"><path d="M 114 126 L 176.964844 126 L 176.964844 197 L 114 197 Z M 114 126 " clip-rule="nonzero"/></clipPath><clipPath id="7286eec9a9"><path d="M 142 107.566406 L 160 107.566406 L 160 124 L 142 124 Z M 142 107.566406 " clip-rule="nonzero"/></clipPath><clipPath id="f91b340c64"><path d="M 246 214.035156 L 256 214.035156 L 256 222 L 246 222 Z M 246 214.035156 " clip-rule="nonzero"/></clipPath><clipPath id="cabd9b26cb"><path d="M 188 225 L 263 225 L 263 281.90625 L 188 281.90625 Z M 188 225 " clip-rule="nonzero"/></clipPath><clipPath id="861f1c33b7"><path d="M 238.929688 214.035156 L 258.277344 214.035156 L 258.277344 233.382812 L 238.929688 233.382812 Z M 238.929688 214.035156 " clip-rule="nonzero"/></clipPath><clipPath id="f24fccb04a"><path d="M 248.601562 214.035156 C 243.257812 214.035156 238.929688 218.367188 238.929688 223.710938 C 238.929688 229.050781 243.257812 233.382812 248.601562 233.382812 C 253.945312 233.382812 258.277344 229.050781 258.277344 223.710938 C 258.277344 218.367188 253.945312 214.035156 248.601562 214.035156 Z M 248.601562 214.035156 " clip-rule="nonzero"/></clipPath></defs><rect x="-37.5" width="450" fill="#ffffff" y="-37.499999" height="449.999989" fill-opacity="1"/><rect x="-37.5" width="450" fill="#282a36" y="-37.499999" height="449.999989" fill-opacity="1"/><path fill="#ffffff" d="M 287.855469 66.304688 C 271.644531 50.09375 187.457031 41.730469 187.457031 41.730469 C 187.457031 41.730469 103.261719 50.09375 87.050781 66.304688 C 87.050781 66.304688 77.566406 153.539062 93.328125 198.082031 C 117.382812 266.0625 187.457031 285.414062 187.457031 285.414062 C 187.457031 285.414062 257.527344 266.0625 281.585938 198.082031 C 297.34375 153.539062 287.855469 66.304688 287.855469 66.304688 " fill-opacity="1" fill-rule="nonzero"/><g clip-path="url(#c201cd75d5)"><path fill="#ffffff" d="M 287.855469 66.304688 L 290.828125 63.335938 C 289.519531 62.035156 288 60.886719 286.296875 59.804688 C 283.105469 57.796875 279.25 56.035156 274.886719 54.394531 C 267.261719 51.546875 258.074219 49.105469 248.519531 47.003906 C 234.199219 43.863281 219.066406 41.507812 207.492188 39.929688 C 195.921875 38.351562 187.90625 37.550781 187.871094 37.550781 C 187.625 37.523438 187.285156 37.523438 187.039062 37.550781 C 186.972656 37.554688 165.855469 39.652344 142.59375 43.800781 C 130.960938 45.882812 118.792969 48.46875 108.367188 51.609375 C 103.152344 53.175781 98.371094 54.886719 94.261719 56.785156 C 92.203125 57.734375 90.3125 58.730469 88.609375 59.804688 C 86.90625 60.886719 85.386719 62.035156 84.082031 63.335938 C 83.410156 64.007812 82.980469 64.90625 82.878906 65.851562 C 82.867188 65.945312 80.023438 92.082031 80.023438 123.214844 C 80.023438 136.148438 80.511719 149.945312 81.917969 163.132812 C 83.324219 176.328125 85.628906 188.898438 89.367188 199.484375 C 95.574219 217.027344 104.765625 231.453125 115.019531 243.175781 C 130.414062 260.757812 148.171875 272.277344 162.09375 279.441406 C 176.019531 286.601562 186.128906 289.402344 186.335938 289.460938 C 187.066406 289.660156 187.84375 289.660156 188.570312 289.460938 C 188.847656 289.378906 206.730469 284.429688 227.785156 270.761719 C 238.308594 263.921875 249.628906 254.898438 259.886719 243.175781 C 270.144531 231.453125 279.332031 217.027344 285.539062 199.484375 C 289.28125 188.898438 291.585938 176.328125 292.992188 163.136719 C 294.394531 149.953125 294.886719 136.15625 294.886719 123.222656 C 294.886719 92.085938 292.039062 65.945312 292.03125 65.851562 C 291.925781 64.90625 291.5 64.007812 290.828125 63.335938 L 287.855469 66.304688 L 283.679688 66.757812 L 283.6875 66.828125 C 283.84375 68.289062 286.488281 93.546875 286.484375 123.222656 C 286.488281 135.9375 286 149.46875 284.640625 162.25 C 283.285156 175.023438 281.035156 187.054688 277.625 196.679688 C 271.800781 213.128906 263.214844 226.613281 253.566406 237.644531 C 239.101562 254.179688 222.222656 265.160156 208.976562 271.96875 C 202.351562 275.375 196.640625 277.738281 192.609375 279.242188 C 190.597656 279.996094 189 280.535156 187.925781 280.878906 C 187.382812 281.050781 186.972656 281.175781 186.707031 281.253906 C 186.574219 281.296875 186.476562 281.324219 186.410156 281.34375 L 186.34375 281.359375 L 186.335938 281.363281 L 187.054688 283.964844 L 186.335938 281.363281 L 187.054688 283.964844 L 186.335938 281.363281 L 187.457031 285.414062 L 188.570312 281.363281 C 188.304688 281.292969 171.113281 276.4375 151.230469 263.414062 C 141.285156 256.902344 130.671875 248.359375 121.117188 237.382812 C 111.5625 226.402344 103.0625 213 97.289062 196.679688 C 93.875 187.054688 91.625 175.019531 90.269531 162.246094 C 88.910156 149.464844 88.417969 135.9375 88.421875 123.214844 C 88.421875 107.902344 89.125 93.761719 89.828125 83.464844 C 90.179688 78.316406 90.53125 74.132812 90.792969 71.234375 C 90.921875 69.785156 91.035156 68.664062 91.109375 67.902344 C 91.148438 67.523438 91.179688 67.234375 91.199219 67.042969 C 91.207031 66.945312 91.214844 66.875 91.222656 66.828125 L 91.226562 66.757812 L 87.050781 66.304688 L 90.019531 69.273438 C 90.746094 68.550781 91.78125 67.738281 93.09375 66.910156 C 95.550781 65.351562 98.953125 63.761719 102.96875 62.265625 C 109.992188 59.628906 118.878906 57.25 128.191406 55.210938 C 142.164062 52.140625 157.117188 49.804688 168.550781 48.25 C 174.265625 47.46875 179.105469 46.882812 182.511719 46.492188 C 184.214844 46.296875 185.558594 46.148438 186.476562 46.054688 C 186.933594 46.003906 187.28125 45.964844 187.519531 45.941406 C 187.753906 45.917969 187.871094 45.90625 187.871094 45.90625 L 187.457031 41.730469 L 187.039062 45.90625 C 187.039062 45.90625 187.113281 45.914062 187.269531 45.929688 C 189.679688 46.175781 210.722656 48.382812 232.988281 52.460938 C 244.117188 54.5 255.558594 57.007812 265.042969 59.929688 C 269.78125 61.386719 274.03125 62.949219 277.460938 64.5625 C 279.175781 65.367188 280.683594 66.183594 281.933594 66.984375 C 283.191406 67.785156 284.1875 68.574219 284.882812 69.273438 L 287.855469 66.304688 L 283.679688 66.757812 L 287.855469 66.304688 " fill-opacity="1" fill-rule="nonzero"/></g><path fill="#282a36" d="M 287.855469 114.160156 C 271.644531 97.949219 187.457031 89.585938 187.457031 89.585938 C 187.457031 89.585938 103.261719 97.949219 87.050781 114.160156 C 87.050781 114.160156 77.566406 201.398438 93.328125 245.9375 C 117.382812 313.917969 187.457031 333.269531 187.457031 333.269531 C 187.457031 333.269531 257.527344 313.917969 281.585938 245.9375 C 297.34375 201.398438 287.855469 114.160156 287.855469 114.160156 " fill-opacity="1" fill-rule="nonzero"/><g clip-path="url(#53806258d9)"><path fill="#ffffff" d="M 287.855469 114.160156 L 290.828125 111.191406 C 289.519531 109.890625 288 108.742188 286.296875 107.664062 C 283.105469 105.652344 279.25 103.890625 274.886719 102.253906 C 267.261719 99.402344 258.074219 96.960938 248.519531 94.859375 C 234.199219 91.71875 219.066406 89.363281 207.492188 87.785156 C 195.921875 86.207031 187.90625 85.40625 187.871094 85.40625 C 187.625 85.378906 187.285156 85.378906 187.039062 85.40625 C 186.972656 85.410156 165.855469 87.507812 142.59375 91.660156 C 130.960938 93.738281 118.792969 96.324219 108.367188 99.464844 C 103.152344 101.03125 98.371094 102.742188 94.261719 104.640625 C 92.203125 105.589844 90.3125 106.585938 88.609375 107.664062 C 86.90625 108.742188 85.386719 109.890625 84.082031 111.191406 C 83.410156 111.863281 82.980469 112.761719 82.878906 113.707031 C 82.867188 113.800781 80.023438 139.941406 80.023438 171.070312 C 80.023438 184.003906 80.511719 197.800781 81.917969 210.988281 C 83.324219 224.183594 85.628906 236.753906 89.367188 247.339844 C 95.574219 264.882812 104.765625 279.3125 115.019531 291.03125 C 130.414062 308.613281 148.171875 320.132812 162.09375 327.296875 C 176.019531 334.457031 186.128906 337.257812 186.335938 337.316406 C 187.066406 337.515625 187.84375 337.515625 188.570312 337.316406 C 188.847656 337.234375 206.730469 332.285156 227.785156 318.617188 C 238.308594 311.777344 249.628906 302.753906 259.886719 291.03125 C 270.144531 279.3125 279.332031 264.882812 285.539062 247.339844 C 289.28125 236.753906 291.585938 224.183594 292.992188 210.992188 C 294.394531 197.808594 294.886719 184.011719 294.886719 171.078125 C 294.886719 139.941406 292.039062 113.800781 292.03125 113.707031 C 291.925781 112.761719 291.5 111.863281 290.828125 111.191406 L 287.855469 114.160156 L 283.679688 114.613281 L 283.6875 114.683594 C 283.84375 116.148438 286.488281 141.402344 286.484375 171.078125 C 286.488281 183.792969 286 197.324219 284.640625 210.105469 C 283.285156 222.878906 281.035156 234.910156 277.625 244.535156 C 271.800781 260.984375 263.214844 274.46875 253.566406 285.5 C 239.101562 302.035156 222.222656 313.015625 208.976562 319.824219 C 202.351562 323.230469 196.640625 325.59375 192.609375 327.101562 C 190.597656 327.851562 189 328.390625 187.925781 328.734375 C 187.382812 328.90625 186.972656 329.03125 186.707031 329.109375 C 186.574219 329.152344 186.476562 329.179688 186.410156 329.199219 L 186.34375 329.214844 L 186.335938 329.21875 L 187.054688 331.820312 L 186.335938 329.21875 L 187.054688 331.820312 L 186.335938 329.21875 L 187.457031 333.269531 L 188.570312 329.21875 C 188.304688 329.148438 171.113281 324.292969 151.230469 311.269531 C 141.285156 304.757812 130.671875 296.21875 121.117188 285.238281 C 111.5625 274.257812 103.0625 260.855469 97.289062 244.535156 C 93.875 234.910156 91.625 222.875 90.269531 210.101562 C 88.910156 197.320312 88.417969 183.792969 88.421875 171.070312 C 88.421875 155.757812 89.125 141.621094 89.828125 131.320312 C 90.179688 126.171875 90.53125 121.988281 90.792969 119.089844 C 90.921875 117.644531 91.035156 116.519531 91.109375 115.757812 C 91.148438 115.378906 91.179688 115.089844 91.199219 114.898438 C 91.207031 114.800781 91.214844 114.730469 91.222656 114.683594 L 91.226562 114.613281 L 87.050781 114.160156 L 90.019531 117.132812 C 90.746094 116.40625 91.78125 115.59375 93.09375 114.765625 C 95.550781 113.207031 98.953125 111.617188 102.96875 110.121094 C 109.992188 107.484375 118.878906 105.105469 128.191406 103.066406 C 142.164062 99.996094 157.117188 97.664062 168.550781 96.105469 C 174.265625 95.328125 179.105469 94.738281 182.511719 94.347656 C 184.214844 94.152344 185.558594 94.003906 186.476562 93.910156 C 186.933594 93.859375 187.28125 93.820312 187.519531 93.796875 C 187.753906 93.773438 187.871094 93.761719 187.871094 93.761719 L 187.457031 89.585938 L 187.039062 93.761719 C 187.039062 93.761719 187.113281 93.769531 187.269531 93.785156 C 189.679688 94.03125 210.722656 96.238281 232.988281 100.316406 C 244.117188 102.355469 255.558594 104.863281 265.042969 107.785156 C 269.78125 109.242188 274.03125 110.804688 277.460938 112.417969 C 279.175781 113.222656 280.683594 114.039062 281.933594 114.839844 C 283.191406 115.640625 284.1875 116.429688 284.882812 117.132812 L 287.855469 114.160156 L 283.679688 114.613281 L 287.855469 114.160156 " fill-opacity="1" fill-rule="nonzero"/></g><g clip-path="url(#b7cd68e61f)"><path fill="#ffffff" d="M 142.492188 262.5625 C 142.144531 260.945312 141.527344 257.925781 141.253906 255.875 C 141.035156 254.195312 141.4375 252.492188 142.386719 251.089844 L 143.535156 249.398438 L 142.914062 246.058594 L 137.625 246.992188 C 137.335938 247.042969 137.042969 247.066406 136.75 247.066406 C 136.070312 247.066406 135.40625 246.929688 134.777344 246.660156 C 134.664062 246.628906 134.550781 246.585938 134.4375 246.550781 L 136.851562 259.53125 L 128.449219 275.140625 C 127.34375 277.191406 128.113281 279.746094 130.160156 280.847656 C 130.796875 281.1875 131.480469 281.351562 132.152344 281.351562 C 133.652344 281.351562 135.105469 280.546875 135.867188 279.136719 L 143.941406 264.136719 C 143.226562 263.921875 142.652344 263.328125 142.492188 262.5625 Z M 142.492188 262.5625 " fill-opacity="1" fill-rule="nonzero"/></g><path fill="#ffffff" d="M 135.433594 211.582031 C 135.433594 212.082031 135.386719 212.574219 135.289062 213.0625 C 135.191406 213.550781 135.046875 214.023438 134.859375 214.484375 C 134.667969 214.945312 134.433594 215.382812 134.15625 215.796875 C 133.882812 216.210938 133.566406 216.59375 133.214844 216.945312 C 132.863281 217.296875 132.480469 217.609375 132.066406 217.886719 C 131.652344 218.164062 131.214844 218.398438 130.753906 218.589844 C 130.292969 218.777344 129.820312 218.921875 129.332031 219.019531 C 128.84375 219.117188 128.351562 219.164062 127.851562 219.164062 C 127.355469 219.164062 126.863281 219.117188 126.375 219.019531 C 125.886719 218.921875 125.410156 218.777344 124.953125 218.589844 C 124.492188 218.398438 124.054688 218.164062 123.640625 217.886719 C 123.226562 217.609375 122.84375 217.296875 122.492188 216.945312 C 122.140625 216.59375 121.824219 216.210938 121.546875 215.796875 C 121.273438 215.382812 121.039062 214.945312 120.847656 214.484375 C 120.65625 214.023438 120.511719 213.550781 120.417969 213.0625 C 120.320312 212.574219 120.269531 212.082031 120.269531 211.582031 C 120.269531 211.085938 120.320312 210.59375 120.417969 210.105469 C 120.511719 209.617188 120.65625 209.140625 120.847656 208.679688 C 121.039062 208.222656 121.273438 207.785156 121.546875 207.371094 C 121.824219 206.957031 122.140625 206.574219 122.492188 206.222656 C 122.84375 205.871094 123.226562 205.554688 123.640625 205.277344 C 124.054688 205 124.492188 204.769531 124.953125 204.578125 C 125.410156 204.386719 125.886719 204.242188 126.375 204.144531 C 126.863281 204.050781 127.355469 204 127.851562 204 C 128.351562 204 128.84375 204.050781 129.332031 204.144531 C 129.820312 204.242188 130.292969 204.386719 130.753906 204.578125 C 131.214844 204.769531 131.652344 205 132.066406 205.277344 C 132.480469 205.554688 132.863281 205.871094 133.214844 206.222656 C 133.566406 206.574219 133.882812 206.957031 134.15625 207.371094 C 134.433594 207.785156 134.667969 208.222656 134.859375 208.679688 C 135.046875 209.140625 135.191406 209.617188 135.289062 210.105469 C 135.386719 210.59375 135.433594 211.085938 135.433594 211.582031 Z M 135.433594 211.582031 " fill-opacity="1" fill-rule="nonzero"/><path fill="#ffffff" d="M 146.777344 224.027344 C 148.480469 223.097656 149.832031 221.515625 150.421875 219.503906 C 150.792969 218.234375 150.816406 216.945312 150.550781 215.738281 L 146.511719 223.632812 Z M 146.777344 224.027344 " fill-opacity="1" fill-rule="nonzero"/><path fill="#ffffff" d="M 138.316406 222.144531 C 138.488281 221.234375 139.003906 220.445312 139.769531 219.921875 C 140.109375 219.691406 140.476562 219.527344 140.867188 219.425781 L 145.589844 210.195312 C 145.484375 210.160156 145.382812 210.125 145.277344 210.097656 C 141.261719 208.917969 137.046875 211.21875 135.867188 215.238281 C 134.992188 218.222656 136.039062 221.3125 138.28125 223.1875 C 138.242188 222.84375 138.25 222.496094 138.316406 222.144531 Z M 138.316406 222.144531 " fill-opacity="1" fill-rule="nonzero"/><g clip-path="url(#c1d4fc9ab2)"><path fill="#ffffff" d="M 175.636719 233.0625 C 171.699219 226.632812 168.578125 223.457031 162.578125 219.523438 C 158.195312 216.691406 153.953125 218.035156 152.132812 220.378906 C 151.089844 221.714844 151.132812 223.578125 151.886719 225.308594 L 154.675781 222.441406 C 155.332031 221.765625 156.21875 221.394531 157.160156 221.394531 C 158.070312 221.394531 158.929688 221.742188 159.582031 222.378906 C 160.246094 223.023438 160.621094 223.890625 160.632812 224.820312 C 160.644531 225.746094 160.296875 226.621094 159.648438 227.285156 L 156.617188 230.398438 C 159.894531 233.191406 163.84375 236.667969 166.339844 240.613281 L 159.921875 254.976562 C 159.464844 255.996094 159.433594 257.152344 159.828125 258.191406 L 167.691406 278.894531 C 168.332031 280.578125 169.933594 281.613281 171.632812 281.613281 C 172.128906 281.613281 172.636719 281.523438 173.128906 281.335938 C 175.300781 280.507812 176.394531 278.078125 175.570312 275.902344 L 168.320312 256.828125 L 176.367188 238.828125 C 176.746094 237.980469 176.816406 237.074219 176.636719 236.234375 C 176.546875 235.289062 176.238281 234.238281 175.636719 233.0625 Z M 175.636719 233.0625 " fill-opacity="1" fill-rule="nonzero"/></g><path fill="#ffffff" d="M 148.925781 236.792969 C 148.824219 236.792969 148.726562 236.789062 148.625 236.78125 C 147.933594 236.722656 147.292969 236.457031 146.765625 236.035156 L 141.816406 236.910156 C 141.652344 236.769531 141.480469 236.625 141.292969 236.476562 C 138.921875 234.855469 136.765625 232.644531 134.84375 230.359375 L 124.558594 229.164062 C 122.65625 228.945312 121.289062 227.21875 121.511719 225.316406 C 121.714844 223.566406 123.195312 222.246094 124.957031 222.246094 C 125.089844 222.246094 125.226562 222.253906 125.359375 222.269531 L 128.984375 222.691406 C 126.992188 220.300781 123.703125 219.066406 121.507812 220.546875 C 119.050781 222.207031 117.421875 226.351562 119.957031 230.914062 C 123.476562 237.164062 126.4375 240.492188 132.585938 244.851562 C 133.464844 245.378906 134.277344 245.722656 135.035156 245.925781 C 135.78125 246.257812 136.625 246.378906 137.488281 246.226562 L 147.863281 244.398438 L 143.03125 251.523438 C 142.183594 252.769531 141.828125 254.28125 142.023438 255.773438 C 142.292969 257.808594 142.914062 260.828125 143.25 262.398438 C 143.410156 263.15625 144.203125 263.648438 144.929688 263.375 C 145.09375 263.3125 145.238281 263.222656 145.328125 263.085938 L 148.621094 258.25 C 148.652344 258.226562 148.679688 258.203125 148.703125 258.171875 L 160.425781 240.882812 C 161.375 239.480469 161.394531 237.648438 160.476562 236.226562 C 159.554688 234.808594 157.875 234.074219 156.207031 234.371094 L 152.035156 235.105469 L 151.414062 235.746094 C 150.761719 236.410156 149.855469 236.792969 148.925781 236.792969 Z M 148.925781 236.792969 " fill-opacity="1" fill-rule="nonzero"/><path fill="#ffffff" d="M 132.96875 229.363281 L 140.304688 230.214844 C 140.410156 230.226562 140.511719 230.230469 140.617188 230.230469 C 141.210938 230.230469 141.773438 230.03125 142.238281 229.683594 L 138.863281 224.746094 C 138.832031 224.699219 138.808594 224.652344 138.777344 224.609375 L 133.628906 224.011719 Z M 132.96875 229.363281 " fill-opacity="1" fill-rule="nonzero"/><path fill="#ffffff" d="M 144.59375 220.828125 L 146.011719 222.90625 L 151.175781 212.8125 C 151.855469 211.484375 151.332031 209.859375 150.003906 209.183594 C 148.679688 208.503906 147.054688 209.03125 146.378906 210.355469 L 141.789062 219.320312 C 142.914062 219.339844 143.960938 219.898438 144.59375 220.828125 Z M 144.59375 220.828125 " fill-opacity="1" fill-rule="nonzero"/><path fill="#ffffff" d="M 131.957031 223.816406 L 125.269531 223.039062 C 123.785156 222.871094 122.453125 223.929688 122.28125 225.40625 C 122.109375 226.886719 123.167969 228.222656 124.648438 228.394531 L 131.292969 229.167969 Z M 131.957031 223.816406 " fill-opacity="1" fill-rule="nonzero"/><path fill="#ffffff" d="M 150.339844 228.003906 L 149.292969 229.082031 L 143.953125 221.265625 C 143.113281 220.035156 141.4375 219.722656 140.207031 220.5625 C 138.976562 221.402344 138.664062 223.078125 139.503906 224.308594 L 146.699219 234.84375 C 147.15625 235.511719 147.886719 235.941406 148.691406 236.007812 C 148.769531 236.015625 148.847656 236.019531 148.925781 236.019531 C 149.648438 236.019531 150.347656 235.726562 150.855469 235.203125 L 154.015625 231.960938 Z M 150.339844 228.003906 " fill-opacity="1" fill-rule="nonzero"/><path fill="#ffffff" d="M 159.042969 222.933594 C 157.976562 221.894531 156.269531 221.917969 155.230469 222.984375 L 151.519531 226.796875 L 155.191406 230.75 L 159.09375 226.746094 C 160.132812 225.679688 160.109375 223.972656 159.042969 222.933594 Z M 159.042969 222.933594 " fill-opacity="1" fill-rule="nonzero"/><g clip-path="url(#36671386d8)"><path fill="#ffffff" d="M 245.296875 139.492188 L 267.203125 131.632812 C 269.566406 130.785156 270.796875 128.183594 269.949219 125.820312 C 269.101562 123.457031 266.496094 122.226562 264.132812 123.074219 L 241.753906 131.105469 C 241.441406 131.214844 241.140625 131.363281 240.859375 131.542969 L 227.546875 139.960938 L 212.078125 132.890625 C 214.648438 132.792969 217.78125 132.910156 220.792969 133.285156 C 221.246094 133.339844 221.707031 133.289062 222.140625 133.132812 L 239.597656 126.828125 C 241.109375 126.28125 241.890625 124.613281 241.347656 123.101562 C 240.800781 121.59375 239.132812 120.808594 237.621094 121.355469 L 220.800781 127.429688 C 219.484375 127.292969 216.519531 127.027344 213.367188 127.046875 C 212.261719 127.050781 211.25 127.097656 210.304688 127.171875 C 210.761719 128.757812 210.792969 130.484375 210.300781 132.183594 C 209.597656 134.613281 207.886719 136.648438 205.613281 137.765625 C 203.59375 138.757812 201.289062 138.957031 199.125 138.328125 C 198.863281 138.253906 198.605469 138.164062 198.355469 138.066406 L 195.675781 143.933594 C 195.628906 144.035156 195.589844 144.140625 195.558594 144.242188 C 194.351562 147.289062 196.125 150.75 200.839844 154.542969 C 200.84375 154.546875 200.847656 154.550781 200.855469 154.554688 C 203.832031 156.945312 207.035156 158.75 207.171875 158.828125 C 207.609375 159.074219 208.101562 159.199219 208.59375 159.199219 C 208.980469 159.199219 209.371094 159.121094 209.734375 158.964844 C 210.566406 158.609375 211.183594 157.890625 211.410156 157.015625 L 214.875 143.613281 C 215.277344 142.054688 214.34375 140.46875 212.785156 140.066406 C 211.230469 139.664062 209.644531 140.597656 209.242188 142.15625 L 206.769531 151.714844 C 205.160156 150.601562 203.722656 149.4375 202.683594 148.425781 L 202.957031 147.511719 C 203.695312 148.273438 204.796875 149.246094 206.265625 150.328125 L 208.433594 141.945312 C 208.859375 140.292969 210.347656 139.136719 212.058594 139.136719 C 212.371094 139.136719 212.6875 139.175781 212.996094 139.257812 C 214.996094 139.773438 216.203125 141.820312 215.6875 143.820312 L 212.832031 154.867188 L 217.339844 156.929688 L 213.976562 169.335938 C 213.847656 169.804688 213.796875 170.289062 213.824219 170.773438 L 215.035156 192.839844 C 215.167969 195.261719 217.175781 197.136719 219.570312 197.136719 C 219.65625 197.136719 219.738281 197.136719 219.824219 197.128906 C 222.332031 196.992188 224.253906 194.847656 224.113281 192.339844 L 222.941406 171.007812 L 227.964844 152.5 C 228.167969 151.746094 228.171875 150.988281 228.003906 150.28125 C 228.339844 150.167969 228.664062 150.015625 228.976562 149.816406 Z M 245.296875 139.492188 " fill-opacity="1" fill-rule="nonzero"/></g><path fill="#ffffff" d="M 203.921875 121.808594 C 204.4375 121.957031 204.933594 122.15625 205.410156 122.402344 C 205.886719 122.652344 206.335938 122.945312 206.753906 123.28125 C 207.175781 123.613281 207.558594 123.988281 207.902344 124.398438 C 208.25 124.8125 208.550781 125.253906 208.808594 125.722656 C 209.070312 126.195312 209.28125 126.683594 209.441406 127.199219 C 209.605469 127.710938 209.714844 128.234375 209.773438 128.765625 C 209.832031 129.300781 209.839844 129.835938 209.792969 130.371094 C 209.746094 130.90625 209.648438 131.433594 209.5 131.949219 C 209.347656 132.464844 209.152344 132.960938 208.902344 133.4375 C 208.65625 133.914062 208.363281 134.363281 208.027344 134.78125 C 207.691406 135.203125 207.320312 135.585938 206.90625 135.929688 C 206.496094 136.277344 206.054688 136.578125 205.585938 136.835938 C 205.113281 137.097656 204.621094 137.308594 204.109375 137.46875 C 203.597656 137.632812 203.074219 137.742188 202.539062 137.800781 C 202.007812 137.859375 201.472656 137.867188 200.9375 137.820312 C 200.402344 137.773438 199.875 137.675781 199.359375 137.527344 C 198.84375 137.378906 198.347656 137.179688 197.871094 136.929688 C 197.394531 136.683594 196.945312 136.390625 196.523438 136.054688 C 196.105469 135.71875 195.722656 135.347656 195.378906 134.933594 C 195.03125 134.523438 194.730469 134.082031 194.46875 133.613281 C 194.210938 133.140625 194 132.648438 193.839844 132.136719 C 193.675781 131.625 193.566406 131.101562 193.507812 130.566406 C 193.445312 130.035156 193.441406 129.5 193.488281 128.964844 C 193.53125 128.429688 193.632812 127.902344 193.78125 127.386719 C 193.929688 126.871094 194.128906 126.375 194.375 125.898438 C 194.625 125.421875 194.914062 124.972656 195.25 124.550781 C 195.585938 124.132812 195.960938 123.75 196.371094 123.40625 C 196.785156 123.058594 197.226562 122.757812 197.695312 122.496094 C 198.167969 122.238281 198.65625 122.027344 199.171875 121.867188 C 199.683594 121.703125 200.207031 121.59375 200.738281 121.535156 C 201.273438 121.472656 201.808594 121.46875 202.34375 121.515625 C 202.878906 121.558594 203.40625 121.660156 203.921875 121.808594 Z M 203.921875 121.808594 " fill-opacity="1" fill-rule="nonzero"/><g clip-path="url(#fd29d2514c)"><path fill="#ffffff" d="M 117.628906 196.496094 C 118.257812 196.761719 118.90625 196.890625 119.546875 196.890625 C 121.449219 196.890625 123.261719 195.773438 124.054688 193.910156 L 139.636719 157.3125 L 142.210938 157.753906 C 142.367188 158.003906 142.546875 158.246094 142.753906 158.46875 L 155.09375 171.800781 L 159.023438 192.953125 C 159.460938 195.308594 161.519531 196.953125 163.832031 196.953125 C 164.128906 196.953125 164.429688 196.925781 164.734375 196.871094 C 167.390625 196.375 169.144531 193.820312 168.652344 191.164062 L 164.460938 168.621094 C 164.292969 167.710938 163.871094 166.867188 163.242188 166.1875 L 152.445312 154.523438 L 155.503906 136.753906 L 159.480469 141.925781 C 160.011719 142.621094 160.8125 143.0625 161.6875 143.136719 C 161.777344 143.144531 161.871094 143.152344 161.964844 143.152344 C 162.742188 143.152344 163.492188 142.863281 164.070312 142.335938 L 175.449219 131.996094 C 176.730469 130.832031 176.824219 128.847656 175.660156 127.566406 C 174.496094 126.289062 172.511719 126.191406 171.234375 127.355469 L 162.375 135.410156 L 156.453125 127.703125 C 156.09375 127.234375 155.625 126.898438 155.113281 126.699219 L 136.132812 139.519531 C 135.460938 139.972656 134.683594 140.210938 133.875 140.210938 C 133.722656 140.210938 133.566406 140.199219 133.414062 140.183594 L 131.464844 151.507812 L 115.042969 190.074219 C 113.984375 192.5625 115.140625 195.4375 117.628906 196.496094 Z M 117.628906 196.496094 " fill-opacity="1" fill-rule="nonzero"/></g><g clip-path="url(#7286eec9a9)"><path fill="#ffffff" d="M 153.585938 118.824219 C 154.929688 118.824219 156.179688 119.488281 156.933594 120.601562 C 157.347656 121.21875 157.578125 121.921875 157.617188 122.648438 C 158.992188 121.132812 159.851562 119.140625 159.90625 116.9375 C 160.023438 112.070312 156.175781 108.03125 151.308594 107.910156 C 146.441406 107.792969 142.402344 111.644531 142.285156 116.507812 C 142.214844 119.304688 143.457031 121.824219 145.449219 123.488281 L 151.332031 119.515625 C 152 119.0625 152.78125 118.824219 153.585938 118.824219 Z M 153.585938 118.824219 " fill-opacity="1" fill-rule="nonzero"/></g><path fill="#ffffff" d="M 133.875 139.308594 C 134.480469 139.308594 135.089844 139.136719 135.628906 138.773438 L 155.34375 125.457031 C 156.777344 124.488281 157.15625 122.539062 156.1875 121.105469 C 155.21875 119.671875 153.269531 119.292969 151.835938 120.261719 L 136.742188 130.457031 L 137.28125 129.003906 L 143.683594 124.683594 L 139.285156 123.925781 C 139.101562 123.894531 138.921875 123.882812 138.746094 123.882812 C 137.667969 123.828125 136.597656 124.125 135.660156 124.765625 C 132.4375 126.972656 131.171875 133.144531 130.777344 135.695312 C 130.773438 135.722656 130.773438 135.75 130.769531 135.777344 C 130.761719 135.835938 130.753906 135.894531 130.75 135.953125 C 130.746094 136 130.746094 136.046875 130.746094 136.09375 C 130.742188 136.148438 130.742188 136.203125 130.742188 136.257812 C 130.746094 136.304688 130.746094 136.355469 130.75 136.402344 C 130.753906 136.457031 130.761719 136.507812 130.765625 136.5625 C 130.773438 136.609375 130.78125 136.660156 130.789062 136.707031 C 130.796875 136.761719 130.808594 136.8125 130.820312 136.863281 C 130.828125 136.910156 130.839844 136.957031 130.855469 137.003906 C 130.867188 137.054688 130.882812 137.105469 130.902344 137.15625 C 130.914062 137.203125 130.933594 137.25 130.949219 137.296875 C 130.96875 137.34375 130.988281 137.394531 131.011719 137.441406 C 131.03125 137.488281 131.050781 137.535156 131.074219 137.578125 C 131.097656 137.625 131.121094 137.671875 131.148438 137.714844 C 131.171875 137.761719 131.203125 137.804688 131.230469 137.851562 C 131.246094 137.875 131.261719 137.902344 131.277344 137.929688 C 131.285156 137.945312 131.296875 137.957031 131.308594 137.96875 C 131.363281 138.046875 131.417969 138.121094 131.480469 138.191406 C 131.496094 138.210938 131.515625 138.234375 131.53125 138.257812 C 131.605469 138.339844 131.683594 138.417969 131.765625 138.492188 C 131.804688 138.527344 131.839844 138.554688 131.878906 138.585938 C 131.929688 138.628906 131.984375 138.671875 132.039062 138.710938 C 132.078125 138.742188 132.121094 138.769531 132.164062 138.800781 C 132.222656 138.835938 132.277344 138.871094 132.335938 138.902344 C 132.378906 138.925781 132.421875 138.953125 132.464844 138.972656 C 132.535156 139.007812 132.609375 139.039062 132.683594 139.070312 C 132.738281 139.09375 132.796875 139.113281 132.851562 139.132812 C 132.933594 139.160156 133.011719 139.1875 133.09375 139.207031 C 133.152344 139.222656 133.210938 139.234375 133.265625 139.246094 C 133.308594 139.253906 133.351562 139.261719 133.390625 139.269531 C 133.402344 139.273438 133.414062 139.269531 133.425781 139.273438 C 133.433594 139.273438 133.445312 139.277344 133.457031 139.277344 C 133.597656 139.296875 133.738281 139.308594 133.875 139.308594 Z M 133.875 139.308594 " fill-opacity="1" fill-rule="nonzero"/><path fill="#ffffff" d="M 245.457031 232.859375 L 245.519531 229.570312 C 245.371094 229.527344 245.226562 229.472656 245.085938 229.410156 C 242.988281 228.449219 242.238281 225.589844 243.414062 223.019531 C 243.910156 221.933594 244.667969 221.078125 245.539062 220.519531 L 245.03125 215.386719 C 244.890625 215.445312 244.75 215.507812 244.613281 215.574219 C 239.9375 217.800781 237.953125 223.398438 240.179688 228.074219 C 241.285156 230.394531 243.21875 232.050781 245.457031 232.859375 Z M 245.457031 232.859375 " fill-opacity="1" fill-rule="nonzero"/><path fill="#ffffff" d="M 251.011719 226.492188 C 250.136719 228.40625 248.441406 229.617188 246.765625 229.714844 L 246.703125 233.214844 C 248.652344 233.628906 250.746094 233.429688 252.683594 232.507812 C 257.359375 230.277344 259.34375 224.683594 257.117188 220.003906 C 256.933594 219.625 256.726562 219.261719 256.503906 218.917969 L 251.410156 222.722656 C 251.703125 223.871094 251.59375 225.214844 251.011719 226.492188 Z M 251.011719 226.492188 " fill-opacity="1" fill-rule="nonzero"/><g clip-path="url(#f91b340c64)"><path fill="#ffffff" d="M 249.339844 220.101562 C 250.007812 220.40625 250.539062 220.90625 250.914062 221.53125 L 255.753906 217.914062 C 253.429688 215.21875 249.726562 214.046875 246.246094 214.972656 L 246.738281 219.960938 C 247.609375 219.703125 248.515625 219.726562 249.339844 220.101562 Z M 249.339844 220.101562 " fill-opacity="1" fill-rule="nonzero"/></g><path fill="#ffffff" d="M 233.292969 232.441406 C 233.222656 230.601562 231.671875 229.164062 229.835938 229.234375 C 227.996094 229.304688 226.558594 230.851562 226.628906 232.691406 L 227.289062 250.304688 C 227.335938 251.578125 228.101562 252.710938 229.261719 253.226562 L 246.816406 261.050781 C 247.257812 261.25 247.71875 261.339844 248.175781 261.339844 C 249.449219 261.339844 250.667969 260.605469 251.222656 259.363281 C 251.972656 257.679688 251.214844 255.710938 249.535156 254.960938 L 233.875 247.980469 Z M 233.292969 232.441406 " fill-opacity="1" fill-rule="nonzero"/><g clip-path="url(#cabd9b26cb)"><path fill="#ffffff" d="M 190.015625 272.152344 C 187.816406 274.007812 187.539062 277.296875 189.394531 279.496094 C 190.425781 280.714844 191.898438 281.34375 193.378906 281.34375 C 194.566406 281.34375 195.761719 280.941406 196.738281 280.117188 L 215.21875 264.511719 C 216.761719 263.210938 217.414062 261.136719 216.894531 259.1875 L 213.242188 245.53125 L 214.230469 245.507812 L 216.121094 252.585938 L 227.417969 257.007812 L 226.042969 276.035156 C 225.835938 278.902344 227.996094 281.398438 230.867188 281.605469 C 230.992188 281.617188 231.121094 281.621094 231.246094 281.621094 C 233.953125 281.621094 236.238281 279.527344 236.4375 276.785156 L 237.789062 258.078125 L 228.875 254.101562 C 227.367188 253.429688 226.390625 251.988281 226.332031 250.339844 L 226.140625 245.316406 L 219.847656 242.851562 C 221.925781 242.167969 224.011719 241.589844 225.984375 241.082031 L 225.667969 232.730469 C 225.625 231.582031 226.03125 230.488281 226.8125 229.648438 C 227.59375 228.808594 228.652344 228.320312 229.800781 228.277344 C 229.855469 228.273438 229.910156 228.273438 229.96875 228.273438 C 232.28125 228.273438 234.164062 230.089844 234.25 232.40625 L 234.507812 239.230469 L 238.34375 247.039062 C 238.90625 248.183594 240.070312 248.902344 241.335938 248.902344 C 241.394531 248.902344 241.453125 248.902344 241.511719 248.898438 L 259.78125 247.933594 C 261.617188 247.835938 263.03125 246.269531 262.933594 244.429688 C 262.835938 242.589844 261.269531 241.175781 259.429688 241.273438 L 243.359375 242.121094 L 237.949219 231.117188 C 236.796875 227.8125 232.976562 224.644531 227.089844 225.316406 C 218.28125 226.375 213.074219 228.179688 205.179688 233.136719 C 201.179688 236.09375 200.808594 239.253906 201.554688 242.078125 C 201.578125 242.199219 201.597656 242.320312 201.628906 242.4375 L 202.53125 245.808594 L 205.972656 258.683594 Z M 190.015625 272.152344 " fill-opacity="1" fill-rule="nonzero"/></g><path fill="#ffffff" d="M 244.273438 223.476562 C 243.417969 225.136719 243.695312 226.945312 244.117188 227.164062 C 244.539062 227.382812 244.652344 225.8125 245.511719 224.148438 C 246.367188 222.488281 247.644531 221.367188 247.222656 221.148438 C 246.800781 220.929688 245.132812 221.816406 244.273438 223.476562 Z M 244.273438 223.476562 " fill-opacity="1" fill-rule="nonzero"/><path fill="#ffffff" d="M 247.261719 228.464844 C 247.699219 228.652344 249.304688 227.65625 250.046875 225.941406 C 250.789062 224.226562 250.386719 222.441406 249.953125 222.25 C 249.515625 222.0625 249.507812 223.636719 248.765625 225.351562 C 248.023438 227.070312 246.824219 228.277344 247.261719 228.464844 Z M 247.261719 228.464844 " fill-opacity="1" fill-rule="nonzero"/><g clip-path="url(#861f1c33b7)"><g clip-path="url(#f24fccb04a)"><path fill="#ffffff" d="M 238.929688 214.035156 L 258.277344 214.035156 L 258.277344 233.382812 L 238.929688 233.382812 Z M 238.929688 214.035156 " fill-opacity="1" fill-rule="nonzero"/></g></g><g fill="#282a36" fill-opacity="1"><g transform="translate(123.524235, 91.062189)"><g><path d="M 31.5625 -5.6875 L 1.5 -0.265625 L 0.421875 -6.28125 L 12.453125 -8.453125 L 9.203125 -26.484375 L -2.828125 -24.3125 L -3.90625 -30.328125 L 26.15625 -35.75 L 27.234375 -29.734375 L 15.21875 -27.5625 L 18.46875 -9.53125 L 30.484375 -11.703125 Z M 31.5625 -5.6875 "/></g></g></g><g fill="#282a36" fill-opacity="1"><g transform="translate(155.394101, 85.646139)"><g/></g></g><g fill="#282a36" fill-opacity="1"><g transform="translate(170.850375, 83.834025)"><g><path d="M 32.078125 -24.4375 L 32.078125 -18.328125 C 32.078125 -17.484375 31.773438 -16.765625 31.171875 -16.171875 C 30.578125 -15.578125 29.859375 -15.28125 29.015625 -15.28125 C 29.859375 -15.28125 30.578125 -14.976562 31.171875 -14.375 C 31.773438 -13.78125 32.078125 -13.0625 32.078125 -12.21875 L 32.078125 -6.109375 C 32.078125 -5.015625 31.800781 -4.003906 31.25 -3.078125 C 30.707031 -2.148438 29.976562 -1.40625 29.0625 -0.84375 C 28.144531 -0.28125 27.113281 0 25.96875 0 L 1.53125 0 L 1.53125 -30.546875 L 25.96875 -30.546875 C 27.113281 -30.546875 28.144531 -30.265625 29.0625 -29.703125 C 29.976562 -29.148438 30.707031 -28.414062 31.25 -27.5 C 31.800781 -26.582031 32.078125 -25.5625 32.078125 -24.4375 Z M 25.96875 -24.4375 L 7.640625 -24.4375 L 7.640625 -18.328125 L 25.96875 -18.328125 Z M 7.640625 -6.109375 L 25.96875 -6.109375 L 25.96875 -12.21875 L 7.640625 -12.21875 Z M 7.640625 -6.109375 "/></g></g></g><g fill="#282a36" fill-opacity="1"><g transform="translate(203.175598, 84.151265)"><g/></g></g><g fill="#282a36" fill-opacity="1"><g transform="translate(218.708406, 85.106395)"><g><path d="M 36.96875 -24.375 L 35.890625 -18.359375 L 11.84375 -22.6875 L 8.59375 -4.65625 L 26.640625 -1.421875 L 27.734375 -7.4375 L 15.703125 -9.59375 L 16.78125 -15.59375 L 34.8125 -12.34375 L 32.640625 -0.328125 C 32.453125 0.753906 32.003906 1.703125 31.296875 2.515625 C 30.597656 3.328125 29.75 3.925781 28.75 4.3125 C 27.75 4.707031 26.6875 4.800781 25.5625 4.59375 L 7.515625 1.359375 C 6.410156 1.160156 5.453125 0.707031 4.640625 0 C 3.828125 -0.695312 3.226562 -1.554688 2.84375 -2.578125 C 2.46875 -3.597656 2.378906 -4.65625 2.578125 -5.75 L 5.828125 -23.78125 C 6.023438 -24.894531 6.476562 -25.859375 7.1875 -26.671875 C 7.894531 -27.484375 8.75 -28.070312 9.75 -28.4375 C 10.757812 -28.8125 11.816406 -28.898438 12.921875 -28.703125 Z M 36.96875 -24.375 "/></g></g></g></svg>