<svg xmlns="http://www.w3.org/2000/svg" xmlns:xlink="http://www.w3.org/1999/xlink" width="500" zoomAndPan="magnify" viewBox="0 0 375 374.999991" height="500" preserveAspectRatio="xMidYMid meet" version="1.0"><defs><g/><clipPath id="acb0533971"><path d="M 55 3.511719 L 320 3.511719 L 320 312.511719 L 55 312.511719 Z M 55 3.511719 " clip-rule="nonzero"/></clipPath><clipPath id="ce5ec24268"><path d="M 55 62.210938 L 320 62.210938 L 320 371.210938 L 55 371.210938 Z M 55 62.210938 " clip-rule="nonzero"/></clipPath><clipPath id="ccf21381cc"><path d="M 114 259 L 135 259 L 135 302.984375 L 114 302.984375 Z M 114 259 " clip-rule="nonzero"/></clipPath><clipPath id="61ca00296a"><path d="M 105 207.734375 L 124 207.734375 L 124 227 L 105 227 Z M 105 207.734375 " clip-rule="nonzero"/></clipPath><clipPath id="c96b6320b8"><path d="M 143 224 L 174.308594 224 L 174.308594 302.984375 L 143 302.984375 Z M 143 224 " clip-rule="nonzero"/></clipPath><clipPath id="3edfe2d194"><path d="M 196 106 L 289 106 L 289 199.398438 L 196 199.398438 Z M 196 106 " clip-rule="nonzero"/></clipPath><clipPath id="c6fd554e46"><path d="M 98 112 L 174 112 L 174 199.707031 L 98 199.707031 Z M 98 112 " clip-rule="nonzero"/></clipPath><clipPath id="550b5c827c"><path d="M 132 89.457031 L 154 89.457031 L 154 109 L 132 109 Z M 132 89.457031 " clip-rule="nonzero"/></clipPath><clipPath id="f1c8ba2a16"><path d="M 259 220.046875 L 272 220.046875 L 272 230 L 259 230 Z M 259 220.046875 " clip-rule="nonzero"/></clipPath><clipPath id="f09ce5c69b"><path d="M 250.582031 220.046875 L 274.3125 220.046875 L 274.3125 243.78125 L 250.582031 243.78125 Z M 250.582031 220.046875 " clip-rule="nonzero"/></clipPath><clipPath id="e13233fc3a"><path d="M 262.445312 220.046875 C 255.894531 220.046875 250.582031 225.359375 250.582031 231.914062 C 250.582031 238.46875 255.894531 243.78125 262.445312 243.78125 C 269 243.78125 274.3125 238.46875 274.3125 231.914062 C 274.3125 225.359375 269 220.046875 262.445312 220.046875 Z M 262.445312 220.046875 " clip-rule="nonzero"/></clipPath></defs><path fill="#ffffff" d="M 310.597656 38.84375 C 290.710938 18.960938 187.445312 8.699219 187.445312 8.699219 C 187.445312 8.699219 84.175781 18.960938 64.292969 38.84375 C 64.292969 38.84375 52.65625 145.847656 71.988281 200.480469 C 101.496094 283.863281 187.445312 307.597656 187.445312 307.597656 C 187.445312 307.597656 273.390625 283.863281 302.902344 200.480469 C 322.234375 145.847656 310.597656 38.84375 310.597656 38.84375 " fill-opacity="1" fill-rule="nonzero"/><g clip-path="url(#acb0533971)"><path fill="#ffffff" d="M 310.597656 38.84375 L 314.238281 35.203125 C 312.636719 33.605469 310.773438 32.195312 308.683594 30.875 C 304.769531 28.40625 300.042969 26.246094 294.6875 24.238281 C 285.332031 20.738281 274.066406 17.746094 262.347656 15.171875 C 244.78125 11.316406 226.21875 8.425781 212.023438 6.488281 C 197.828125 4.554688 187.996094 3.578125 187.953125 3.574219 C 187.652344 3.539062 187.238281 3.539062 186.933594 3.574219 C 186.855469 3.582031 160.949219 6.152344 132.417969 11.242188 C 118.148438 13.792969 103.226562 16.964844 90.4375 20.816406 C 84.042969 22.738281 78.175781 24.835938 73.132812 27.167969 C 70.609375 28.328125 68.292969 29.554688 66.203125 30.875 C 64.113281 32.195312 62.25 33.605469 60.648438 35.203125 C 59.824219 36.027344 59.296875 37.125 59.171875 38.289062 C 59.160156 38.402344 55.671875 70.464844 55.671875 108.648438 C 55.671875 124.515625 56.269531 141.4375 57.992188 157.613281 C 59.71875 173.792969 62.546875 189.214844 67.132812 202.199219 C 74.746094 223.714844 86.019531 241.414062 98.597656 255.789062 C 117.480469 277.355469 139.257812 291.488281 156.339844 300.273438 C 173.417969 309.054688 185.820312 312.492188 186.074219 312.5625 C 186.96875 312.808594 187.921875 312.808594 188.816406 312.5625 C 189.152344 312.464844 211.089844 306.394531 236.914062 289.628906 C 249.824219 281.238281 263.707031 270.167969 276.289062 255.789062 C 288.871094 241.414062 300.140625 223.714844 307.753906 202.199219 C 312.34375 189.214844 315.167969 173.792969 316.894531 157.617188 C 318.617188 141.445312 319.214844 124.523438 319.214844 108.65625 C 319.214844 70.46875 315.726562 38.402344 315.714844 38.289062 C 315.585938 37.125 315.0625 36.027344 314.238281 35.203125 L 310.597656 38.84375 L 305.472656 39.402344 L 305.480469 39.484375 C 305.675781 41.28125 308.917969 72.257812 308.914062 108.65625 C 308.917969 124.257812 308.320312 140.851562 306.648438 156.527344 C 304.988281 172.195312 302.230469 186.953125 298.046875 198.761719 C 290.902344 218.933594 280.371094 235.476562 268.535156 249.003906 C 250.792969 269.285156 230.089844 282.753906 213.839844 291.109375 C 205.714844 295.289062 198.710938 298.183594 193.769531 300.03125 C 191.296875 300.953125 189.339844 301.613281 188.023438 302.035156 C 187.359375 302.25 186.855469 302.402344 186.527344 302.5 C 186.363281 302.550781 186.242188 302.582031 186.164062 302.609375 L 186.082031 302.628906 L 186.070312 302.632812 L 186.957031 305.824219 L 186.074219 302.632812 L 186.070312 302.632812 L 186.957031 305.824219 L 186.074219 302.632812 L 187.445312 307.597656 L 188.816406 302.632812 C 188.488281 302.546875 167.402344 296.585938 143.011719 280.613281 C 130.8125 272.625 117.792969 262.152344 106.074219 248.6875 C 94.355469 235.21875 83.929688 218.777344 76.847656 198.761719 C 72.664062 186.953125 69.902344 172.191406 68.238281 156.523438 C 66.570312 140.847656 65.96875 124.253906 65.972656 108.648438 C 65.972656 89.863281 66.835938 72.523438 67.695312 59.890625 C 68.125 53.578125 68.558594 48.441406 68.878906 44.890625 C 69.039062 43.113281 69.175781 41.738281 69.269531 40.804688 C 69.316406 40.339844 69.355469 39.984375 69.378906 39.75 C 69.390625 39.628906 69.398438 39.542969 69.40625 39.484375 L 69.414062 39.402344 L 64.292969 38.84375 L 67.933594 42.488281 C 68.824219 41.597656 70.09375 40.601562 71.703125 39.585938 C 74.71875 37.675781 78.890625 35.722656 83.8125 33.886719 C 92.429688 30.65625 103.332031 27.738281 114.75 25.234375 C 131.890625 21.46875 150.234375 18.605469 164.257812 16.695312 C 171.269531 15.742188 177.203125 15.023438 181.382812 14.542969 C 183.46875 14.300781 185.121094 14.121094 186.242188 14.003906 C 186.804688 13.941406 187.234375 13.894531 187.523438 13.867188 C 187.8125 13.839844 187.953125 13.824219 187.953125 13.824219 L 187.445312 8.699219 L 186.933594 13.824219 C 186.933594 13.824219 187.027344 13.835938 187.21875 13.851562 C 190.175781 14.152344 215.980469 16.859375 243.296875 21.863281 C 256.945312 24.363281 270.976562 27.441406 282.613281 31.023438 C 288.421875 32.8125 293.636719 34.726562 297.84375 36.707031 C 299.949219 37.695312 301.796875 38.695312 303.332031 39.679688 C 304.875 40.660156 306.09375 41.625 306.949219 42.488281 L 310.597656 38.84375 L 305.472656 39.402344 L 310.597656 38.84375 " fill-opacity="1" fill-rule="nonzero"/></g><path fill="#282a36" d="M 310.597656 97.542969 C 290.710938 77.660156 187.445312 67.398438 187.445312 67.398438 C 187.445312 67.398438 84.175781 77.660156 64.292969 97.542969 C 64.292969 97.542969 52.65625 204.546875 71.988281 259.179688 C 101.496094 342.5625 187.445312 366.296875 187.445312 366.296875 C 187.445312 366.296875 273.390625 342.5625 302.902344 259.179688 C 322.234375 204.546875 310.597656 97.542969 310.597656 97.542969 " fill-opacity="1" fill-rule="nonzero"/><g clip-path="url(#ce5ec24268)"><path fill="#ffffff" d="M 310.597656 97.542969 L 314.238281 93.902344 C 312.636719 92.304688 310.773438 90.894531 308.683594 89.570312 C 304.769531 87.105469 300.042969 84.945312 294.6875 82.9375 C 285.332031 79.4375 274.066406 76.445312 262.347656 73.871094 C 244.78125 70.015625 226.21875 67.125 212.023438 65.1875 C 197.828125 63.253906 187.996094 62.277344 187.953125 62.273438 C 187.652344 62.238281 187.238281 62.238281 186.933594 62.273438 C 186.855469 62.28125 160.949219 64.851562 132.417969 69.941406 C 118.148438 72.492188 103.226562 75.664062 90.4375 79.515625 C 84.042969 81.4375 78.175781 83.535156 73.132812 85.867188 C 70.609375 87.027344 68.292969 88.253906 66.203125 89.570312 C 64.113281 90.894531 62.25 92.304688 60.648438 93.902344 C 59.824219 94.726562 59.296875 95.824219 59.171875 96.988281 C 59.160156 97.101562 55.671875 129.164062 55.671875 167.347656 C 55.671875 183.210938 56.269531 200.136719 57.992188 216.3125 C 59.71875 232.492188 62.546875 247.914062 67.132812 260.898438 C 74.746094 282.414062 86.019531 300.113281 98.597656 314.488281 C 117.480469 336.054688 139.257812 350.1875 156.339844 358.972656 C 173.417969 367.753906 185.820312 371.191406 186.074219 371.261719 C 186.96875 371.507812 187.921875 371.507812 188.816406 371.261719 C 189.152344 371.160156 211.089844 365.09375 236.914062 348.328125 C 249.824219 339.9375 263.707031 328.867188 276.289062 314.488281 C 288.871094 300.113281 300.140625 282.414062 307.753906 260.898438 C 312.34375 247.914062 315.167969 232.492188 316.894531 216.316406 C 318.617188 200.144531 319.214844 183.222656 319.214844 167.355469 C 319.214844 129.167969 315.726562 97.101562 315.714844 96.988281 C 315.585938 95.824219 315.0625 94.726562 314.238281 93.902344 L 310.597656 97.542969 L 305.472656 98.101562 L 305.480469 98.183594 C 305.675781 99.980469 308.917969 130.957031 308.914062 167.355469 C 308.917969 182.957031 308.320312 199.550781 306.648438 215.226562 C 304.988281 230.894531 302.230469 245.652344 298.046875 257.460938 C 290.902344 277.632812 280.371094 294.175781 268.535156 307.703125 C 250.792969 327.984375 230.089844 341.453125 213.839844 349.808594 C 205.714844 353.988281 198.710938 356.882812 193.769531 358.730469 C 191.296875 359.652344 189.339844 360.3125 188.023438 360.734375 C 187.359375 360.949219 186.855469 361.101562 186.527344 361.199219 C 186.363281 361.25 186.242188 361.28125 186.164062 361.308594 L 186.082031 361.328125 L 186.070312 361.332031 L 186.957031 364.523438 L 186.074219 361.332031 L 186.070312 361.332031 L 186.957031 364.523438 L 186.074219 361.332031 L 187.445312 366.296875 L 188.816406 361.332031 C 188.488281 361.246094 167.402344 355.285156 143.011719 339.3125 C 130.8125 331.324219 117.792969 320.851562 106.074219 307.386719 C 94.355469 293.917969 83.929688 277.476562 76.847656 257.460938 C 72.664062 245.652344 69.902344 230.890625 68.238281 215.222656 C 66.570312 199.546875 65.96875 182.953125 65.972656 167.347656 C 65.972656 148.5625 66.835938 131.222656 67.695312 118.589844 C 68.125 112.277344 68.558594 107.140625 68.878906 103.589844 C 69.039062 101.8125 69.175781 100.4375 69.269531 99.503906 C 69.316406 99.039062 69.355469 98.683594 69.378906 98.449219 C 69.390625 98.328125 69.398438 98.242188 69.40625 98.183594 L 69.414062 98.101562 L 64.292969 97.542969 L 67.933594 101.1875 C 68.824219 100.296875 70.09375 99.300781 71.703125 98.285156 C 74.71875 96.375 78.890625 94.421875 83.8125 92.585938 C 92.429688 89.355469 103.332031 86.4375 114.75 83.933594 C 131.890625 80.167969 150.234375 77.304688 164.257812 75.394531 C 171.269531 74.441406 177.203125 73.71875 181.382812 73.242188 C 183.46875 73 185.121094 72.820312 186.242188 72.703125 C 186.804688 72.640625 187.234375 72.59375 187.523438 72.566406 C 187.8125 72.539062 187.953125 72.519531 187.953125 72.519531 L 187.445312 67.398438 L 186.933594 72.519531 C 186.933594 72.519531 187.027344 72.535156 187.21875 72.550781 C 190.175781 72.851562 215.980469 75.558594 243.296875 80.5625 C 256.945312 83.0625 270.976562 86.140625 282.613281 89.722656 C 288.421875 91.511719 293.636719 93.425781 297.84375 95.40625 C 299.949219 96.394531 301.796875 97.394531 303.332031 98.378906 C 304.875 99.359375 306.09375 100.324219 306.949219 101.1875 L 310.597656 97.542969 L 305.472656 98.101562 L 310.597656 97.542969 " fill-opacity="1" fill-rule="nonzero"/></g><g clip-path="url(#ccf21381cc)"><path fill="#ffffff" d="M 132.292969 279.570312 C 131.867188 277.585938 131.109375 273.882812 130.777344 271.367188 C 130.503906 269.304688 131 267.222656 132.167969 265.496094 L 133.574219 263.421875 L 132.8125 259.324219 L 126.324219 260.46875 C 125.96875 260.53125 125.609375 260.566406 125.25 260.566406 C 124.414062 260.566406 123.601562 260.394531 122.832031 260.0625 C 122.695312 260.023438 122.550781 259.972656 122.414062 259.929688 L 125.375 275.851562 L 115.066406 295 C 113.714844 297.511719 114.65625 300.644531 117.167969 302 C 117.945312 302.417969 118.785156 302.617188 119.613281 302.617188 C 121.453125 302.617188 123.234375 301.632812 124.167969 299.898438 L 134.070312 281.5 C 133.195312 281.238281 132.492188 280.511719 132.292969 279.570312 Z M 132.292969 279.570312 " fill-opacity="1" fill-rule="nonzero"/></g><g clip-path="url(#61ca00296a)"><path fill="#ffffff" d="M 123.636719 217.039062 C 123.636719 217.648438 123.578125 218.253906 123.460938 218.855469 C 123.339844 219.453125 123.164062 220.035156 122.929688 220.597656 C 122.695312 221.164062 122.410156 221.699219 122.070312 222.207031 C 121.730469 222.714844 121.347656 223.183594 120.914062 223.617188 C 120.480469 224.046875 120.011719 224.433594 119.503906 224.773438 C 118.996094 225.113281 118.460938 225.398438 117.898438 225.632812 C 117.332031 225.867188 116.75 226.042969 116.152344 226.160156 C 115.554688 226.28125 114.949219 226.339844 114.339844 226.339844 C 113.726562 226.339844 113.121094 226.28125 112.523438 226.160156 C 111.925781 226.042969 111.34375 225.867188 110.777344 225.632812 C 110.214844 225.398438 109.679688 225.113281 109.171875 224.773438 C 108.664062 224.433594 108.195312 224.046875 107.761719 223.617188 C 107.328125 223.183594 106.945312 222.714844 106.605469 222.207031 C 106.265625 221.699219 105.980469 221.164062 105.746094 220.597656 C 105.511719 220.035156 105.335938 219.453125 105.214844 218.855469 C 105.097656 218.253906 105.039062 217.648438 105.039062 217.039062 C 105.039062 216.429688 105.097656 215.824219 105.214844 215.226562 C 105.335938 214.625 105.511719 214.042969 105.746094 213.480469 C 105.980469 212.917969 106.265625 212.378906 106.605469 211.871094 C 106.945312 211.363281 107.328125 210.894531 107.761719 210.464844 C 108.195312 210.03125 108.664062 209.644531 109.171875 209.308594 C 109.679688 208.96875 110.214844 208.679688 110.777344 208.449219 C 111.34375 208.214844 111.925781 208.039062 112.523438 207.917969 C 113.121094 207.800781 113.726562 207.738281 114.339844 207.738281 C 114.949219 207.738281 115.554688 207.800781 116.152344 207.917969 C 116.75 208.039062 117.332031 208.214844 117.898438 208.449219 C 118.460938 208.679688 118.996094 208.96875 119.503906 209.308594 C 120.011719 209.644531 120.480469 210.03125 120.914062 210.464844 C 121.347656 210.894531 121.730469 211.363281 122.070312 211.871094 C 122.410156 212.378906 122.695312 212.917969 122.929688 213.480469 C 123.164062 214.042969 123.339844 214.625 123.460938 215.226562 C 123.578125 215.824219 123.636719 216.429688 123.636719 217.039062 Z M 123.636719 217.039062 " fill-opacity="1" fill-rule="nonzero"/></g><path fill="#ffffff" d="M 137.550781 232.304688 C 139.640625 231.160156 141.296875 229.222656 142.019531 226.757812 C 142.476562 225.199219 142.503906 223.617188 142.175781 222.140625 L 137.222656 231.820312 Z M 137.550781 232.304688 " fill-opacity="1" fill-rule="nonzero"/><path fill="#ffffff" d="M 127.171875 229.996094 C 127.382812 228.878906 128.015625 227.910156 128.957031 227.265625 C 129.371094 226.984375 129.824219 226.78125 130.300781 226.660156 L 136.09375 215.339844 C 135.964844 215.296875 135.839844 215.253906 135.710938 215.214844 C 130.78125 213.769531 125.613281 216.59375 124.167969 221.523438 C 123.097656 225.183594 124.378906 228.972656 127.128906 231.273438 C 127.078125 230.855469 127.09375 230.421875 127.171875 229.996094 Z M 127.171875 229.996094 " fill-opacity="1" fill-rule="nonzero"/><g clip-path="url(#c96b6320b8)"><path fill="#ffffff" d="M 172.949219 243.382812 C 168.117188 235.5 164.292969 231.605469 156.929688 226.78125 C 151.558594 223.304688 146.351562 224.957031 144.117188 227.828125 C 142.839844 229.46875 142.890625 231.75 143.816406 233.875 L 147.238281 230.359375 C 148.046875 229.53125 149.128906 229.074219 150.289062 229.074219 C 151.402344 229.074219 152.457031 229.503906 153.257812 230.28125 C 154.074219 231.074219 154.53125 232.136719 154.546875 233.273438 C 154.558594 234.410156 154.132812 235.488281 153.339844 236.300781 L 149.621094 240.117188 C 153.636719 243.542969 158.484375 247.808594 161.546875 252.648438 L 153.671875 270.265625 C 153.113281 271.515625 153.074219 272.933594 153.558594 274.210938 L 163.207031 299.601562 C 163.988281 301.667969 165.953125 302.9375 168.035156 302.9375 C 168.644531 302.9375 169.265625 302.828125 169.871094 302.597656 C 172.539062 301.585938 173.878906 298.601562 172.867188 295.933594 L 163.976562 272.535156 L 173.84375 250.457031 C 174.308594 249.417969 174.398438 248.308594 174.175781 247.277344 C 174.066406 246.117188 173.6875 244.828125 172.949219 243.382812 Z M 172.949219 243.382812 " fill-opacity="1" fill-rule="nonzero"/></g><path fill="#ffffff" d="M 140.1875 247.964844 C 140.0625 247.964844 139.941406 247.957031 139.816406 247.949219 C 138.96875 247.875 138.183594 247.550781 137.535156 247.03125 L 131.464844 248.105469 C 131.261719 247.929688 131.050781 247.753906 130.824219 247.574219 C 127.914062 245.585938 125.269531 242.875 122.914062 240.070312 L 110.296875 238.605469 C 107.964844 238.335938 106.289062 236.21875 106.558594 233.886719 C 106.808594 231.738281 108.625 230.121094 110.785156 230.121094 C 110.949219 230.121094 111.113281 230.128906 111.277344 230.148438 L 115.726562 230.664062 C 113.28125 227.734375 109.246094 226.21875 106.554688 228.035156 C 103.539062 230.070312 101.542969 235.15625 104.652344 240.75 C 108.972656 248.417969 112.601562 252.5 120.144531 257.84375 C 121.222656 258.492188 122.21875 258.917969 123.148438 259.164062 C 124.0625 259.570312 125.101562 259.722656 126.15625 259.535156 L 138.882812 257.289062 L 132.953125 266.03125 C 131.917969 267.558594 131.476562 269.410156 131.71875 271.242188 C 132.050781 273.742188 132.808594 277.441406 133.222656 279.371094 C 133.417969 280.300781 134.390625 280.898438 135.28125 280.566406 C 135.484375 280.492188 135.660156 280.378906 135.773438 280.214844 L 139.8125 274.285156 C 139.851562 274.253906 139.886719 274.222656 139.910156 274.183594 L 154.292969 252.976562 C 155.457031 251.257812 155.480469 249.011719 154.351562 247.269531 C 153.222656 245.527344 151.160156 244.628906 149.117188 244.988281 L 144 245.890625 L 143.234375 246.675781 C 142.441406 247.496094 141.328125 247.964844 140.1875 247.964844 Z M 140.1875 247.964844 " fill-opacity="1" fill-rule="nonzero"/><path fill="#ffffff" d="M 120.609375 238.847656 L 129.609375 239.890625 C 129.738281 239.90625 129.867188 239.914062 129.992188 239.914062 C 130.722656 239.914062 131.414062 239.667969 131.980469 239.242188 L 127.84375 233.183594 C 127.804688 233.128906 127.773438 233.074219 127.738281 233.015625 L 121.425781 232.285156 Z M 120.609375 238.847656 " fill-opacity="1" fill-rule="nonzero"/><path fill="#ffffff" d="M 134.871094 228.382812 L 136.613281 230.929688 L 142.949219 218.546875 C 143.78125 216.921875 143.136719 214.929688 141.507812 214.097656 C 139.882812 213.265625 137.890625 213.90625 137.058594 215.535156 L 131.433594 226.53125 C 132.8125 226.554688 134.09375 227.242188 134.871094 228.382812 Z M 134.871094 228.382812 " fill-opacity="1" fill-rule="nonzero"/><path fill="#ffffff" d="M 119.371094 232.046875 L 111.167969 231.09375 C 109.351562 230.882812 107.714844 232.183594 107.503906 233.996094 C 107.292969 235.808594 108.59375 237.453125 110.40625 237.664062 L 118.558594 238.609375 Z M 119.371094 232.046875 " fill-opacity="1" fill-rule="nonzero"/><path fill="#ffffff" d="M 141.921875 237.183594 L 140.636719 238.503906 L 134.085938 228.917969 C 133.058594 227.410156 131 227.023438 129.492188 228.050781 C 127.984375 229.082031 127.597656 231.140625 128.628906 232.648438 L 137.457031 245.570312 C 138.015625 246.390625 138.910156 246.914062 139.898438 247 C 139.996094 247.007812 140.089844 247.011719 140.1875 247.011719 C 141.074219 247.011719 141.929688 246.65625 142.554688 246.011719 L 146.429688 242.035156 Z M 141.921875 237.183594 " fill-opacity="1" fill-rule="nonzero"/><path fill="#ffffff" d="M 152.59375 230.960938 C 151.285156 229.6875 149.191406 229.714844 147.917969 231.023438 L 143.367188 235.699219 L 147.871094 240.550781 L 152.65625 235.636719 C 153.929688 234.328125 153.902344 232.234375 152.59375 230.960938 Z M 152.59375 230.960938 " fill-opacity="1" fill-rule="nonzero"/><g clip-path="url(#3edfe2d194)"><path fill="#ffffff" d="M 258.390625 128.617188 L 285.265625 118.976562 C 288.164062 117.933594 289.667969 114.742188 288.628906 111.84375 C 287.589844 108.945312 284.394531 107.4375 281.496094 108.476562 L 254.046875 118.324219 C 253.660156 118.464844 253.292969 118.644531 252.949219 118.863281 L 236.625 129.191406 L 217.648438 120.519531 C 220.796875 120.398438 224.640625 120.542969 228.335938 121 C 228.894531 121.066406 229.460938 121.003906 229.988281 120.8125 L 251.402344 113.082031 C 253.257812 112.414062 254.21875 110.367188 253.546875 108.511719 C 252.878906 106.65625 250.832031 105.695312 248.976562 106.367188 L 228.347656 113.816406 C 226.730469 113.648438 223.09375 113.324219 219.226562 113.347656 C 217.875 113.355469 216.628906 113.410156 215.46875 113.503906 C 216.03125 115.445312 216.074219 117.566406 215.46875 119.648438 C 214.601562 122.628906 212.507812 125.125 209.71875 126.496094 C 207.238281 127.714844 204.414062 127.960938 201.757812 127.1875 C 201.4375 127.09375 201.121094 126.984375 200.816406 126.867188 L 197.527344 134.066406 C 197.46875 134.1875 197.421875 134.3125 197.382812 134.441406 C 195.90625 138.179688 198.078125 142.425781 203.859375 147.074219 C 203.867188 147.078125 203.875 147.082031 203.878906 147.089844 C 207.535156 150.023438 211.460938 152.238281 211.628906 152.328125 C 212.167969 152.632812 212.769531 152.785156 213.375 152.785156 C 213.847656 152.785156 214.324219 152.691406 214.773438 152.5 C 215.792969 152.066406 216.550781 151.183594 216.828125 150.109375 L 221.078125 133.667969 C 221.570312 131.757812 220.425781 129.8125 218.515625 129.320312 C 216.609375 128.824219 214.660156 129.972656 214.167969 131.882812 L 211.136719 143.609375 C 209.164062 142.238281 207.398438 140.8125 206.125 139.570312 L 206.460938 138.453125 C 207.363281 139.382812 208.71875 140.578125 210.519531 141.90625 L 213.175781 131.625 C 213.699219 129.597656 215.527344 128.179688 217.621094 128.179688 C 218.007812 128.179688 218.394531 128.226562 218.773438 128.324219 C 221.226562 128.960938 222.707031 131.472656 222.074219 133.925781 L 218.570312 147.472656 L 224.101562 150 L 219.972656 165.21875 C 219.816406 165.792969 219.753906 166.390625 219.789062 166.984375 L 221.273438 194.050781 C 221.4375 197.023438 223.898438 199.320312 226.839844 199.320312 C 226.941406 199.320312 227.046875 199.320312 227.148438 199.3125 C 230.222656 199.144531 232.582031 196.515625 232.410156 193.4375 L 230.972656 167.273438 L 237.132812 144.570312 C 237.382812 143.648438 237.386719 142.714844 237.183594 141.847656 C 237.59375 141.707031 237.992188 141.519531 238.375 141.277344 Z M 258.390625 128.617188 " fill-opacity="1" fill-rule="nonzero"/></g><path fill="#ffffff" d="M 207.640625 106.921875 C 208.273438 107.105469 208.882812 107.351562 209.46875 107.65625 C 210.054688 107.957031 210.601562 108.316406 211.117188 108.726562 C 211.632812 109.140625 212.101562 109.597656 212.527344 110.101562 C 212.949219 110.605469 213.320312 111.148438 213.640625 111.726562 C 213.957031 112.300781 214.214844 112.90625 214.414062 113.535156 C 214.613281 114.164062 214.75 114.804688 214.820312 115.460938 C 214.894531 116.113281 214.902344 116.769531 214.84375 117.425781 C 214.789062 118.082031 214.667969 118.726562 214.484375 119.359375 C 214.300781 119.992188 214.058594 120.601562 213.753906 121.1875 C 213.449219 121.773438 213.089844 122.324219 212.679688 122.835938 C 212.269531 123.351562 211.808594 123.820312 211.304688 124.246094 C 210.800781 124.667969 210.261719 125.039062 209.683594 125.359375 C 209.105469 125.675781 208.5 125.933594 207.875 126.132812 C 207.246094 126.332031 206.601562 126.46875 205.949219 126.539062 C 205.292969 126.613281 204.636719 126.621094 203.980469 126.5625 C 203.324219 126.507812 202.679688 126.386719 202.046875 126.203125 C 201.414062 126.019531 200.804688 125.777344 200.21875 125.472656 C 199.632812 125.167969 199.085938 124.8125 198.570312 124.398438 C 198.054688 123.988281 197.585938 123.527344 197.160156 123.023438 C 196.738281 122.519531 196.367188 121.980469 196.050781 121.402344 C 195.730469 120.824219 195.472656 120.222656 195.273438 119.59375 C 195.074219 118.964844 194.941406 118.324219 194.867188 117.667969 C 194.792969 117.011719 194.785156 116.355469 194.84375 115.699219 C 194.898438 115.042969 195.019531 114.398438 195.203125 113.765625 C 195.386719 113.132812 195.632812 112.523438 195.933594 111.9375 C 196.238281 111.355469 196.597656 110.804688 197.007812 110.289062 C 197.421875 109.773438 197.878906 109.304688 198.382812 108.882812 C 198.886719 108.457031 199.429688 108.085938 200.003906 107.769531 C 200.582031 107.449219 201.1875 107.191406 201.8125 106.992188 C 202.441406 106.796875 203.085938 106.660156 203.738281 106.585938 C 204.394531 106.515625 205.050781 106.507812 205.707031 106.5625 C 206.363281 106.621094 207.007812 106.738281 207.640625 106.921875 Z M 207.640625 106.921875 " fill-opacity="1" fill-rule="nonzero"/><g clip-path="url(#c6fd554e46)"><path fill="#ffffff" d="M 101.800781 198.535156 C 102.566406 198.863281 103.363281 199.015625 104.148438 199.015625 C 106.484375 199.015625 108.703125 197.644531 109.675781 195.363281 L 128.792969 150.472656 L 131.945312 151.015625 C 132.140625 151.320312 132.363281 151.617188 132.617188 151.894531 L 147.75 168.246094 L 152.574219 194.1875 C 153.109375 197.078125 155.632812 199.097656 158.46875 199.097656 C 158.835938 199.097656 159.203125 199.0625 159.574219 198.992188 C 162.835938 198.386719 164.988281 195.253906 164.382812 191.992188 L 159.242188 164.34375 C 159.035156 163.226562 158.515625 162.191406 157.746094 161.359375 L 144.503906 147.050781 L 148.253906 125.253906 L 153.128906 131.601562 C 153.785156 132.453125 154.765625 132.992188 155.835938 133.085938 C 155.949219 133.097656 156.066406 133.101562 156.179688 133.101562 C 157.128906 133.101562 158.054688 132.75 158.765625 132.101562 L 172.71875 119.417969 C 174.289062 117.988281 174.402344 115.558594 172.976562 113.988281 C 171.546875 112.417969 169.117188 112.300781 167.546875 113.730469 L 156.683594 123.605469 L 149.421875 114.15625 C 148.976562 113.578125 148.402344 113.167969 147.773438 112.921875 L 124.492188 128.648438 C 123.671875 129.203125 122.714844 129.496094 121.726562 129.496094 C 121.535156 129.496094 121.347656 129.480469 121.160156 129.460938 L 118.769531 143.355469 L 98.625 190.65625 C 97.328125 193.707031 98.746094 197.234375 101.800781 198.535156 Z M 101.800781 198.535156 " fill-opacity="1" fill-rule="nonzero"/></g><g clip-path="url(#550b5c827c)"><path fill="#ffffff" d="M 145.902344 103.261719 C 147.550781 103.261719 149.085938 104.078125 150.007812 105.441406 C 150.519531 106.199219 150.796875 107.0625 150.84375 107.953125 C 152.53125 106.097656 153.585938 103.652344 153.652344 100.945312 C 153.796875 94.976562 149.074219 90.023438 143.105469 89.878906 C 137.136719 89.734375 132.183594 94.453125 132.039062 100.421875 C 131.953125 103.851562 133.480469 106.945312 135.921875 108.984375 L 143.136719 104.113281 C 143.957031 103.554688 144.914062 103.261719 145.902344 103.261719 Z M 145.902344 103.261719 " fill-opacity="1" fill-rule="nonzero"/></g><path fill="#ffffff" d="M 121.726562 128.390625 C 122.46875 128.390625 123.214844 128.175781 123.875 127.730469 L 148.058594 111.398438 C 149.816406 110.207031 150.277344 107.820312 149.089844 106.0625 C 147.902344 104.300781 145.511719 103.839844 143.753906 105.027344 L 125.242188 117.53125 L 125.902344 115.75 L 133.753906 110.449219 L 128.359375 109.519531 C 128.136719 109.480469 127.914062 109.46875 127.695312 109.46875 C 126.378906 109.398438 125.0625 109.765625 123.914062 110.550781 C 119.964844 113.257812 118.410156 120.828125 117.925781 123.957031 C 117.921875 123.992188 117.917969 124.023438 117.914062 124.054688 C 117.90625 124.128906 117.898438 124.199219 117.894531 124.273438 C 117.886719 124.328125 117.886719 124.386719 117.882812 124.445312 C 117.882812 124.511719 117.882812 124.578125 117.882812 124.644531 C 117.886719 124.707031 117.886719 124.765625 117.894531 124.824219 C 117.898438 124.890625 117.902344 124.953125 117.910156 125.019531 C 117.917969 125.078125 117.929688 125.140625 117.9375 125.199219 C 117.949219 125.261719 117.960938 125.324219 117.976562 125.390625 C 117.988281 125.449219 118.003906 125.507812 118.019531 125.5625 C 118.035156 125.625 118.054688 125.6875 118.074219 125.75 C 118.09375 125.808594 118.113281 125.863281 118.136719 125.917969 C 118.160156 125.980469 118.183594 126.039062 118.210938 126.097656 C 118.234375 126.15625 118.261719 126.210938 118.289062 126.265625 C 118.320312 126.324219 118.347656 126.378906 118.378906 126.433594 C 118.410156 126.492188 118.445312 126.546875 118.480469 126.601562 C 118.5 126.632812 118.515625 126.664062 118.539062 126.699219 C 118.550781 126.714844 118.5625 126.730469 118.578125 126.746094 C 118.640625 126.839844 118.710938 126.929688 118.785156 127.019531 C 118.808594 127.042969 118.828125 127.074219 118.851562 127.097656 C 118.941406 127.199219 119.039062 127.296875 119.136719 127.386719 C 119.183594 127.429688 119.230469 127.464844 119.277344 127.503906 C 119.339844 127.554688 119.402344 127.609375 119.46875 127.65625 C 119.523438 127.695312 119.574219 127.730469 119.628906 127.765625 C 119.695312 127.808594 119.765625 127.851562 119.835938 127.890625 C 119.890625 127.921875 119.941406 127.949219 119.996094 127.976562 C 120.082031 128.023438 120.171875 128.058594 120.261719 128.097656 C 120.332031 128.125 120.402344 128.152344 120.472656 128.175781 C 120.566406 128.207031 120.667969 128.242188 120.769531 128.265625 C 120.835938 128.285156 120.90625 128.296875 120.980469 128.308594 C 121.03125 128.320312 121.078125 128.332031 121.132812 128.34375 C 121.144531 128.34375 121.160156 128.34375 121.171875 128.34375 C 121.183594 128.347656 121.199219 128.351562 121.214844 128.351562 C 121.382812 128.375 121.554688 128.390625 121.726562 128.390625 Z M 121.726562 128.390625 " fill-opacity="1" fill-rule="nonzero"/><path fill="#ffffff" d="M 258.589844 243.136719 L 258.664062 239.105469 C 258.484375 239.050781 258.308594 238.984375 258.132812 238.90625 C 255.558594 237.730469 254.640625 234.222656 256.082031 231.066406 C 256.691406 229.738281 257.621094 228.6875 258.6875 228 L 258.066406 221.707031 C 257.894531 221.777344 257.722656 221.851562 257.554688 221.933594 C 251.820312 224.667969 249.386719 231.535156 252.117188 237.269531 C 253.472656 240.113281 255.84375 242.144531 258.589844 243.136719 Z M 258.589844 243.136719 " fill-opacity="1" fill-rule="nonzero"/><path fill="#ffffff" d="M 265.402344 235.324219 C 264.328125 237.675781 262.25 239.160156 260.195312 239.28125 L 260.117188 243.574219 C 262.507812 244.082031 265.078125 243.839844 267.453125 242.707031 C 273.191406 239.972656 275.625 233.105469 272.890625 227.371094 C 272.667969 226.902344 272.414062 226.457031 272.136719 226.035156 L 265.890625 230.703125 C 266.25 232.113281 266.117188 233.761719 265.402344 235.324219 Z M 265.402344 235.324219 " fill-opacity="1" fill-rule="nonzero"/><g clip-path="url(#f1c8ba2a16)"><path fill="#ffffff" d="M 263.351562 227.488281 C 264.171875 227.863281 264.824219 228.476562 265.285156 229.242188 L 271.21875 224.808594 C 268.367188 221.5 263.828125 220.0625 259.558594 221.199219 L 260.164062 227.316406 C 261.230469 227 262.34375 227.027344 263.351562 227.488281 Z M 263.351562 227.488281 " fill-opacity="1" fill-rule="nonzero"/></g><path fill="#ffffff" d="M 243.667969 242.625 C 243.582031 240.367188 241.679688 238.601562 239.425781 238.691406 C 237.171875 238.777344 235.410156 240.675781 235.492188 242.933594 L 236.304688 264.535156 C 236.363281 266.09375 237.300781 267.484375 238.726562 268.121094 L 260.257812 277.71875 C 260.800781 277.957031 261.367188 278.074219 261.921875 278.074219 C 263.488281 278.074219 264.980469 277.167969 265.660156 275.644531 C 266.578125 273.582031 265.652344 271.164062 263.589844 270.246094 L 244.382812 261.683594 Z M 243.667969 242.625 " fill-opacity="1" fill-rule="nonzero"/><path fill="#ffffff" d="M 190.585938 291.332031 C 187.890625 293.609375 187.550781 297.644531 189.824219 300.339844 C 191.089844 301.839844 192.894531 302.609375 194.714844 302.609375 C 196.167969 302.609375 197.632812 302.113281 198.832031 301.101562 L 221.5 281.964844 C 223.394531 280.367188 224.191406 277.820312 223.554688 275.429688 L 219.078125 258.679688 L 220.285156 258.648438 L 222.605469 267.332031 L 236.464844 272.757812 L 234.777344 296.09375 C 234.523438 299.613281 237.171875 302.675781 240.691406 302.929688 C 240.847656 302.941406 241.003906 302.945312 241.160156 302.945312 C 244.480469 302.945312 247.285156 300.378906 247.527344 297.015625 L 249.1875 274.070312 L 238.246094 269.195312 C 236.398438 268.371094 235.203125 266.601562 235.128906 264.582031 L 234.898438 258.417969 L 227.175781 255.394531 C 229.726562 254.554688 232.285156 253.847656 234.703125 253.222656 L 234.316406 242.976562 C 234.265625 241.570312 234.761719 240.230469 235.71875 239.199219 C 236.675781 238.167969 237.976562 237.570312 239.382812 237.515625 C 239.449219 237.515625 239.519531 237.511719 239.589844 237.511719 C 242.429688 237.511719 244.738281 239.738281 244.84375 242.582031 L 245.160156 250.953125 L 249.867188 260.53125 C 250.554688 261.933594 251.984375 262.816406 253.535156 262.816406 C 253.605469 262.816406 253.679688 262.816406 253.75 262.808594 L 276.15625 261.628906 C 278.414062 261.507812 280.144531 259.585938 280.027344 257.328125 C 279.90625 255.070312 277.984375 253.335938 275.726562 253.457031 L 256.015625 254.5 L 249.382812 241 C 247.96875 236.945312 243.28125 233.0625 236.0625 233.886719 C 225.253906 235.183594 218.871094 237.394531 209.183594 243.476562 C 204.277344 247.105469 203.824219 250.980469 204.738281 254.445312 C 204.765625 254.59375 204.792969 254.738281 204.832031 254.886719 L 205.9375 259.019531 L 210.15625 274.8125 Z M 190.585938 291.332031 " fill-opacity="1" fill-rule="nonzero"/><path fill="#ffffff" d="M 257.136719 231.628906 C 256.085938 233.664062 256.429688 235.886719 256.945312 236.152344 C 257.464844 236.417969 257.605469 234.492188 258.65625 232.453125 C 259.707031 230.417969 261.273438 229.039062 260.757812 228.773438 C 260.238281 228.503906 258.191406 229.589844 257.136719 231.628906 Z M 257.136719 231.628906 " fill-opacity="1" fill-rule="nonzero"/><path fill="#ffffff" d="M 260.800781 237.746094 C 261.335938 237.980469 263.308594 236.757812 264.21875 234.652344 C 265.128906 232.546875 264.636719 230.355469 264.101562 230.125 C 263.566406 229.894531 263.558594 231.824219 262.648438 233.929688 C 261.738281 236.035156 260.269531 237.515625 260.800781 237.746094 Z M 260.800781 237.746094 " fill-opacity="1" fill-rule="nonzero"/><g clip-path="url(#f09ce5c69b)"><g clip-path="url(#e13233fc3a)"><path fill="#ffffff" d="M 250.582031 220.046875 L 274.3125 220.046875 L 274.3125 243.78125 L 250.582031 243.78125 Z M 250.582031 220.046875 " fill-opacity="1" fill-rule="nonzero"/></g></g><g fill="#282a36" fill-opacity="1"><g transform="translate(109.028237, 69.210776)"><g><path d="M 38.71875 -6.96875 L 1.84375 -0.328125 L 0.515625 -7.703125 L 15.265625 -10.359375 L 11.28125 -32.5 L -3.46875 -29.84375 L -4.796875 -37.203125 L 32.078125 -43.84375 L 33.40625 -36.484375 L 18.65625 -33.828125 L 22.640625 -11.6875 L 37.390625 -14.34375 Z M 38.71875 -6.96875 "/></g></g></g><g fill="#282a36" fill-opacity="1"><g transform="translate(148.119356, 62.567529)"><g/></g></g><g fill="#282a36" fill-opacity="1"><g transform="translate(167.077801, 60.344817)"><g><path d="M 39.34375 -29.984375 L 39.34375 -22.484375 C 39.34375 -21.453125 38.972656 -20.566406 38.234375 -19.828125 C 37.503906 -19.097656 36.625 -18.734375 35.59375 -18.734375 C 36.625 -18.734375 37.503906 -18.363281 38.234375 -17.625 C 38.972656 -16.894531 39.34375 -16.015625 39.34375 -14.984375 L 39.34375 -7.5 C 39.34375 -6.15625 39.003906 -4.910156 38.328125 -3.765625 C 37.660156 -2.628906 36.765625 -1.71875 35.640625 -1.03125 C 34.523438 -0.34375 33.265625 0 31.859375 0 L 1.875 0 L 1.875 -37.46875 L 31.859375 -37.46875 C 33.265625 -37.46875 34.523438 -37.125 35.640625 -36.4375 C 36.765625 -35.75 37.660156 -34.84375 38.328125 -33.71875 C 39.003906 -32.601562 39.34375 -31.359375 39.34375 -29.984375 Z M 31.859375 -29.984375 L 9.375 -29.984375 L 9.375 -22.484375 L 31.859375 -22.484375 Z M 9.375 -7.5 L 31.859375 -7.5 L 31.859375 -14.984375 L 9.375 -14.984375 Z M 9.375 -7.5 "/></g></g></g><g fill="#282a36" fill-opacity="1"><g transform="translate(206.727441, 60.733935)"><g/></g></g><g fill="#282a36" fill-opacity="1"><g transform="translate(225.779778, 61.905478)"><g><path d="M 45.359375 -29.90625 L 44.03125 -22.546875 L 14.53125 -27.859375 L 10.546875 -5.71875 L 32.6875 -1.734375 L 34.015625 -9.109375 L 19.25 -11.765625 L 20.578125 -19.140625 L 42.703125 -15.15625 L 40.046875 -0.40625 C 39.804688 0.914062 39.253906 2.078125 38.390625 3.078125 C 37.523438 4.078125 36.484375 4.816406 35.265625 5.296875 C 34.046875 5.773438 32.742188 5.890625 31.359375 5.640625 L 9.21875 1.65625 C 7.875 1.414062 6.695312 0.863281 5.6875 0 C 4.6875 -0.863281 3.957031 -1.914062 3.5 -3.15625 C 3.039062 -4.394531 2.929688 -5.691406 3.171875 -7.046875 L 7.15625 -29.1875 C 7.394531 -30.539062 7.945312 -31.710938 8.8125 -32.703125 C 9.675781 -33.703125 10.726562 -34.429688 11.96875 -34.890625 C 13.21875 -35.347656 14.515625 -35.457031 15.859375 -35.21875 Z M 45.359375 -29.90625 "/></g></g></g></svg>